<?xml version="1.0" encoding="UTF-8"?><svg id="a" xmlns="http://www.w3.org/2000/svg" viewBox="0 0 579.76 587.1"><rect x=".25" y=".25" width="579.26" height="586.6" fill="none" stroke="#000" stroke-miterlimit="2.61" stroke-width=".5"/><path d="m127.52,585.07c-2.34,1.18-5.38,1.77-9.13,1.77-4.78,0-8.6-1.46-11.44-4.37-2.85-2.92-4.27-6.81-4.27-11.66,0-5.09,1.59-9.26,4.76-12.5,3.18-3.24,7.25-4.86,12.22-4.86,3.13,0,5.74.42,7.86,1.25v6.1c-2.19-1.27-4.68-1.91-7.46-1.91-3.26,0-5.88,1.06-7.85,3.18-1.96,2.12-2.95,4.88-2.95,8.29s.94,6.03,2.81,8.03c1.87,2.01,4.37,3.01,7.48,3.01,2.94,0,5.59-.7,7.97-2.11v5.77Z" fill-rule="evenodd" stroke-width="0"/><path d="m193.74,586.28h-6.82l-2.61-7.72h-12.13l-2.55,7.72h-6.82l11.96-32.3h7.22l11.76,32.3h0Zm-10.99-12.68l-3.95-11.7c-.16-.46-.33-1.36-.51-2.67h-.15c-.12.98-.3,1.86-.55,2.63l-3.98,11.74h9.13Z" fill-rule="evenodd" stroke-width="0"/><path d="m237.17,574.83v11.45h-6.25v-32.3h10.66c7.86,0,11.8,3.38,11.8,10.12,0,3.26-1.19,5.89-3.56,7.88-2.38,1.98-5.37,2.94-8.96,2.85h-3.68Zm0-15.86v10.96h3.17c4.32,0,6.48-1.86,6.48-5.59s-2.11-5.37-6.34-5.37h-3.31Z" fill-rule="evenodd" stroke-width="0"/><rect x="291.45" y="553.98" width="6.25" height="32.3" stroke-width="0"/><polygon points="359.97 559.18 350.73 559.18 350.73 586.28 344.46 586.28 344.46 559.18 335.25 559.18 335.25 553.98 359.97 553.98 359.97 559.18" fill-rule="evenodd" stroke-width="0"/><path d="m421.43,586.28h-6.82l-2.61-7.72h-12.13l-2.55,7.72h-6.82l11.96-32.3h7.22l11.76,32.3h0Zm-10.99-12.68l-3.95-11.7c-.16-.46-.33-1.36-.51-2.67h-.15c-.12.98-.3,1.86-.55,2.63l-3.98,11.74h9.13Z" fill-rule="evenodd" stroke-width="0"/><polygon points="477.07 586.28 458.61 586.28 458.61 553.98 464.86 553.98 464.86 581.1 477.07 581.1 477.07 586.28" fill-rule="evenodd" stroke-width="0"/><path d="m289.88,389.22l120.42-69.45-120.42,69.45h0Zm-16.63-253.33l-103.79-.04v183.92l120.42,69.45.28-.16,120.14-69.29v-183.92l-103.79.04.04,208.62-16.67,9.62-16.67-9.62.04-208.62h0Zm64.22,31.61l40.65-.6v135.15l-40.51,22.76-.14-157.31h0Zm-95.19,0l-.14,157.31-40.51-22.76v-135.15l40.65.6Z" fill="red" fill-rule="evenodd" stroke-width="0"/><rect x="169.46" y="74.35" width="240.84" height="32.4" fill="red" stroke-width="0"/><polygon points="322.98 60.55 258.18 60.7 247.68 13.9 278.13 35.05 290.28 .25 305.28 34.75 334.38 13.3 322.98 60.55" fill="red" fill-rule="evenodd" stroke-width="0"/><path d="m360.73,506.15h-20.53l-26.24-36.31c-.6-.84-1.31-2.16-2.14-3.91v-3.32c.46-1.03,1.19-2.37,2.18-4.02l25.08-34.82h19.2l-30.67,39.35,33.14,43.03Z" fill-rule="evenodd" stroke-width="0"/><rect x="381.34" y="423.77" width="15.95" height="82.38" stroke-width="0"/><path d="m491,506.15h-16.69l-36.42-55.79c-1.49-2.27-2.71-4.39-3.69-6.38h-.23c.31,2.62.46,6.86.46,12.76v49.41h-15.22v-82.38h17.78l35.14,54.34c1.8,2.77,3.09,4.89,3.92,6.38h.23c-.31-1.45-.44-5.29-.44-11.52v-49.2h15.17v82.38Z" fill-rule="evenodd" stroke-width="0"/><path d="m579.51,500.56c-8.1,4.7-17.88,7.05-29.32,7.05-12.76,0-22.9-3.71-30.45-11.1-7.53-7.41-11.31-17.5-11.31-30.25s4.11-23.34,12.32-31.53c8.21-8.17,19.06-12.28,32.57-12.28,8.8,0,16.45,1.28,22.94,3.8v15.51c-6.34-3.84-14.13-5.77-23.4-5.77-8.16,0-14.8,2.69-19.94,8.08-5.14,5.41-7.7,12.51-7.7,21.35s2.31,16.04,6.93,21.07c4.64,5.02,10.98,7.53,19.04,7.53,4.91,0,9.02-.8,12.3-2.41v-18.18h-16.9v-12.99h32.91v40.13Z" fill-rule="evenodd" stroke-width="0"/><polygon points="311.74 465.9 311.73 465.9 311.73 506.15 295.78 506.15 295.78 423.95 311.73 423.95 311.73 462.83 311.74 462.83 311.74 465.9" fill="red" fill-rule="evenodd" stroke-width="0"/><path d="m113.61,423.77l-22.16,82.38h-17.86l-14.59-54.95c-.71-2.65-1.17-5.65-1.34-9.02h-.23c-.42,3.86-.9,6.84-1.45,8.96l-14.96,55.01h-18.41L.25,423.77h17.52l13.26,57.36c.55,2.46.95,5.48,1.16,9.02h.4c.11-2.62.65-5.69,1.62-9.23l15.89-57.15h16.79l14.65,57.76c.46,1.8.88,4.62,1.3,8.5h.27c.19-3.02.63-5.96,1.3-8.84l12.99-57.42h16.22Z" fill="red" fill-rule="evenodd" stroke-width="0"/><path d="m116.88,466.02c0-12.93,3.72-23.44,11.17-31.5,7.43-8.06,17.32-12.09,29.68-12.09,11.71,0,21.14,3.92,28.29,11.73s10.72,17.84,10.72,30.08c0,12.89-3.69,23.36-11.06,31.36-7.35,8-17.11,11.99-29.22,11.99s-21.33-3.9-28.63-11.69c-7.3-7.79-10.94-17.76-10.94-29.89h0Zm16.79-.88c0,8.35,2.06,15.2,6.19,20.55,4.13,5.35,9.72,8.04,16.81,8.04s13.06-2.56,17.15-7.64c4.09-5.1,6.13-12.01,6.13-20.74s-1.99-16.08-5.94-21.26c-3.95-5.2-9.55-7.77-16.77-7.77s-13.08,2.71-17.27,8.14c-4.2,5.42-6.3,12.32-6.3,20.69Z" fill="red" fill-rule="evenodd" stroke-width="0"/><path d="m279.85,506.15h-18.47l-13.1-21.77c-2.64-4.39-4.91-7.3-6.76-8.67-1.87-1.38-3.88-2.06-6.05-2.06h-5.81v32.51h-15.95v-82.38h27.98c19.02,0,28.54,7.43,28.54,22.27,0,5.46-1.6,10.18-4.79,14.19-3.19,4.01-7.74,6.86-13.62,8.54v.23c3.76,1.26,7.93,5.5,12.47,12.7l15.57,24.45h0Zm-50.2-69.94v24.96h9.51c4.32,0,7.77-1.26,10.37-3.78,2.6-2.52,3.9-5.67,3.9-9.44,0-7.83-4.66-11.75-14-11.75h-9.78Z" fill="red" fill-rule="evenodd" stroke-width="0"/></svg>