<?xml version="1.0" encoding="UTF-8"?><svg id="a" xmlns="http://www.w3.org/2000/svg" viewBox="0 0 241.34 389.47"><rect x=".25" y=".25" width="240.84" height="388.97" fill="none" stroke="#000" stroke-miterlimit="2.61" stroke-width=".5"/><path d="m120.67,389.22l120.42-69.45-120.42,69.45h0Zm-16.63-253.33l-103.79-.04v183.92l120.42,69.45.28-.16,120.14-69.29v-183.92l-103.79.04.04,208.62-16.67,9.62-16.67-9.62.04-208.62h0Zm64.22,31.61l40.65-.6v135.15l-40.51,22.76-.14-157.31h0Zm-95.19,0l-.14,157.31-40.51-22.76v-135.15l40.65.6Z" fill="red" fill-rule="evenodd" stroke-width="0"/><rect x=".25" y="74.35" width="240.84" height="32.4" fill="red" stroke-width="0"/><polygon points="153.77 60.55 88.97 60.7 78.47 13.9 108.92 35.05 121.07 .25 136.07 34.75 165.17 13.3 153.77 60.55" fill="red" fill-rule="evenodd" stroke-width="0"/></svg>