<?xml version="1.0" encoding="utf-8"?>
<!-- Generator: Adobe Illustrator 27.8.1, SVG Export Plug-In . SVG Version: 6.00 Build 0)  -->
<svg version="1.1" id="Layer_1" xmlns="http://www.w3.org/2000/svg" xmlns:xlink="http://www.w3.org/1999/xlink" x="0px" y="0px"
	 viewBox="0 0 1929.1 605" style="enable-background:new 0 0 1929.1 605;" xml:space="preserve">
<style type="text/css">
	.st0{opacity:0.8;enable-background:new    ;}
</style>
<g>
	<g>
		<path class="st0" d="M0.1,366c0.5,2.2,2.7,3.5,4.8,3c1.2-0.3,2.1-1.1,2.6-2.1l169.8,65c-0.2,0.6-0.2,1.2-0.1,1.9
			c0.5,2.2,2.7,3.5,4.8,3c1.7-0.4,2.9-1.8,3.1-3.4l166.6,0.4l38.9,33.4c-0.6,0.9-0.9,2-0.6,3.2c0.5,2.2,2.7,3.5,4.8,3
			c1.2-0.3,2.1-1.1,2.6-2.1l162.1,60.3c-0.2,0.6-0.2,1.2-0.1,1.8c0.5,2.2,2.7,3.5,4.8,3c1-0.2,1.8-0.8,2.3-1.6l111.1,64.4
			c-0.4,0.8-0.5,1.6-0.3,2.5c0.5,2.2,2.7,3.5,4.8,3c2.2-0.5,3.5-2.7,3-4.8c-0.1-0.3-0.2-0.5-0.3-0.7l143.7-86.7
			c0.9,1.2,2.5,1.8,4.1,1.5c1.1-0.2,1.9-0.9,2.5-1.8l163.6,79.1c-0.2,0.7-0.4,1.4-0.2,2.2c0.5,2.2,2.7,3.5,4.8,3
			c2.2-0.5,3.5-2.7,3-4.8c0-0.2-0.1-0.3-0.2-0.5l140.7-70.2c0.9,1.4,2.6,2.2,4.3,1.8c1.4-0.3,2.3-1.3,2.8-2.5l73.7,21.8
			c-0.1,0.6-0.2,1.1,0,1.8c0.5,2.2,2.7,3.5,4.8,3c2.2-0.5,3.5-2.7,3-4.8c-0.1-0.4-0.3-0.8-0.5-1.1l144.7-112.4
			c1,0.9,2.3,1.5,3.7,1.1c2-0.5,3.3-2.4,3-4.4l176.3-43.9c0.7,1.8,2.6,3,4.6,2.5c1.2-0.3,2.1-1.1,2.6-2.1l148.1,56.8
			c-0.2,0.6-0.2,1.2-0.1,1.9c0.5,2.2,2.7,3.5,4.8,3c2.2-0.5,3.5-2.7,3-4.9c-0.1-0.4-0.3-0.7-0.5-1l126.2-91.9c0.9,1,2.4,1.6,3.8,1.2
			c2.2-0.5,3.5-2.7,3-4.9c-0.2-0.8-0.7-1.5-1.3-2l65.6-88.9c0.9,0.5,1.9,0.7,3,0.5c2.2-0.5,3.5-2.7,3-4.8c-0.5-2.2-2.7-3.5-4.9-3
			c-1.5,0.3-2.5,1.4-2.9,2.8l-184.1-30.2c0-0.4,0-0.7,0-1.1c-0.5-2.2-2.7-3.5-4.8-3c-0.7,0.2-1.3,0.6-1.8,1.1L1586.1,95
			c0.5-0.9,0.8-2,0.5-3.1c-0.5-2.2-2.7-3.5-4.8-3c-1.2,0.3-2,1-2.6,2l-168.4-68.5c0.2-0.6,0.2-1.3,0.1-2c-0.5-2.2-2.7-3.5-4.8-3
			c-1.6,0.4-2.7,1.6-3,3.1L1200.3,3.8c0-0.2,0-0.5,0-0.7c-0.5-2.2-2.7-3.5-4.8-3s-3.5,2.7-3,4.8c0.2,0.8,0.6,1.4,1.2,1.9
			l-118.3,160.5c-0.8-0.5-1.8-0.7-2.8-0.4c-2.1,0.5-3.4,2.5-3,4.6l-171.7,49.1c-0.8-1.8-2.6-2.8-4.6-2.4c-2.2,0.5-3.5,2.7-3,4.8
			c0,0.1,0.1,0.2,0.1,0.2l-130.9,55.2c-0.8-1.5-2.6-2.4-4.4-2c-1.2,0.3-2.1,1.1-2.6,2l-105.7-44.5c0.2-0.7,0.3-1.4,0.1-2.1
			c-0.5-2.2-2.7-3.5-4.8-3c-2.2,0.5-3.5,2.7-3,4.8c0,0,0,0.1,0.1,0.1l-147,57c-0.8-1.6-2.6-2.5-4.4-2.1c-1.5,0.4-2.6,1.5-3,3
			l-142.1-20.3c0-0.3,0-0.7,0-1c-0.5-2.2-2.7-3.5-4.8-3c-2.2,0.5-3.5,2.7-3,4.8c0.1,0.3,0.2,0.5,0.4,0.8L243.2,328
			c-0.9-1.3-2.5-1.9-4.2-1.6c-1.7,0.4-2.8,1.8-3.1,3.4l-193.8-2.7c0-0.2,0-0.3,0-0.5c-0.5-2.2-2.7-3.5-4.8-3c-2.2,0.5-3.5,2.7-3,4.8
			c0.2,0.7,0.6,1.3,1.1,1.9L6.5,362c-0.9-0.7-2.2-1.1-3.4-0.8C1,361.7-0.4,363.8,0.1,366z M1921.1,248.7c0.2,0.9,0.7,1.5,1.3,2.1
			l-65.6,88.9c-0.9-0.5-1.9-0.7-3-0.5c-0.6,0.1-1.1,0.4-1.5,0.7l-116.1-121.1c0.3-0.4,0.6-0.9,0.7-1.4l184.1,30.2
			C1921.1,248,1921,248.3,1921.1,248.7z M429.6,460l93.9-26.3c0.5,1.3,1.7,2.3,3.1,2.5l35.1,92.9c-0.5,0.3-1,0.7-1.4,1.2L429.6,460z
			 M1001.6,588.8l-61.9-158.9c1.4-0.7,2.2-2.2,2.1-3.8l96.9-16.3c0.4,1.3,1.4,2.3,2.6,2.7L1003,588.7c-0.4,0-0.8-0.1-1.3,0
			C1001.7,588.7,1001.7,588.8,1001.6,588.8z M1148,515.8l-102.3-104.6c0.7-0.8,1-1.9,0.9-3.1l169.3-45.4c0.3,0.8,0.9,1.5,1.7,2
			l-65.9,150.4c-0.7-0.2-1.4-0.3-2.1-0.1C1148.9,515.2,1148.4,515.5,1148,515.8z M1851,342l-133.5-25.2c0-0.4,0.1-0.8,0-1.2
			c-0.3-1.5-1.5-2.5-2.8-2.9l18.2-92.3c0.4,0.1,0.9,0.1,1.3,0c0.6-0.1,1.1-0.4,1.5-0.7l116.1,121.1
			C1851.4,341,1851.1,341.5,1851,342z M1582.7,96.8l5.8,80.7c-0.1,0-0.2,0-0.3,0c-2,0.5-3.2,2.3-3,4.2l-96.2,15.1
			c-0.2-0.6-0.5-1.2-0.9-1.6l92.3-99.2C1581,96.5,1581.8,96.8,1582.7,96.8z M1198.7,7.3l117,124.1c-0.6,0.7-0.9,1.6-0.9,2.6
			l-92.1,9.2c0-0.1,0-0.1,0-0.2c-0.4-1.9-2.2-3.2-4.2-3.1l-21.2-132C1197.9,7.8,1198.3,7.6,1198.7,7.3z M1214.9,145.1
			c0.1,0.2,0.2,0.4,0.3,0.7l-70,47.3l-67.9-21.4c0.1-0.3,0-0.7,0-1L1214.9,145.1z M458.7,330.3l-75.8,97.5L340,275
			c0.8-0.3,1.4-0.8,1.8-1.5L458.7,330.3z M218.2,367.7l-115.1-5.1c0-0.1,0-0.1,0-0.2l133.1-30.7c0.3,0.8,0.8,1.5,1.5,2L218.2,367.7z
			 M217.7,368.6l-34.8,60.7c-0.8-0.4-1.7-0.5-2.6-0.3c-0.8,0.2-1.4,0.6-1.9,1.1l-76.1-64.9c0.4-0.5,0.6-1.1,0.7-1.7L217.7,368.6z
			 M172.2,425.7l-84.4-62.2l7.4-0.2c0,0.2,0,0.3,0,0.5c0.5,2.2,2.7,3.5,4.8,3c0.8-0.2,1.4-0.6,1.9-1.1L172.2,425.7z M87,362.9
			l-4.4-3.3l12.7,2.7c0,0.1,0,0.2,0,0.4L87,362.9z M248,338.4l31.5,28.5c-0.5-0.1-1-0.1-1.5,0c-0.7,0.2-1.2,0.5-1.7,0.9L248,338.4z
			 M293.6,379.6l-11.1-7c0.4-0.8,0.6-1.7,0.4-2.7c0,0,0,0,0-0.1L293.6,379.6z M275,370.2l-56-2.5l19.3-33.7c0.8,0.4,1.7,0.5,2.6,0.3
			c0.7-0.2,1.2-0.5,1.7-0.9l33.5,34.7C275.5,368.7,275.1,369.4,275,370.2z M44.1,350.3l21.3-2.1l13.8,10.2l-35.1-7.6
			C44.2,350.6,44.1,350.5,44.1,350.3z M40,346.2l-1.2-14.7c0.1,0,0.2,0,0.4,0c0.8-0.2,1.4-0.6,2-1.2l23.1,17l-20.1,2l0,0
			C43.7,347.4,41.9,346.2,40,346.2z M44.1,331.3l26.5,15.4l-4.9,0.5L44.1,331.3z M72.1,347.5l23.5,13.6c-0.1,0.2-0.2,0.4-0.2,0.6
			l-13.8-3L66.8,348L72.1,347.5z M73,347.5l159.8-15.8l-129.9,30c-0.7-1.9-2.6-3.1-4.7-2.6c-1,0.2-1.9,0.9-2.4,1.7L73,347.5z
			 M247.9,336.8l35.4,26.2l-2.2,3.7L247.9,336.8z M283.8,363.4l86.6,64.1l-71.7-44.8l-17.2-15.5L283.8,363.4z M584.8,462.9
			l14.6-48.9l21.7-5.6l32.5,89.5c-0.7,0.3-1.2,0.7-1.6,1.3L584.8,462.9z M941.8,425.3c-0.2-0.8-0.6-1.4-1.1-1.9l47.8-62.6l50.9,45.6
			c-0.5,0.7-0.7,1.6-0.7,2.6L941.8,425.3z M1046.3,407.2c-0.3-0.8-0.8-1.4-1.5-1.9l47-94.5l123.9,49.4c-0.1,0.5-0.2,1-0.1,1.6
			L1046.3,407.2z M1498.5,226.6l-11.4-25.4c1.3-0.8,2-2.2,1.9-3.7l96.2-15.1c0,0.1,0.1,0.2,0.2,0.4L1498.5,226.6z M1075.5,174.3
			l32.7,43.8l-34.7,23.4c-0.7-0.8-1.6-1.2-2.6-1.4l2.6-65.2c0.3,0,0.5,0,0.8,0C1074.7,174.7,1075.1,174.5,1075.5,174.3z
			 M939.9,422.9c-0.7-0.4-1.5-0.6-2.4-0.5L909,289.7l78.7,70.5L939.9,422.9z M1123.6,244.5l-14.5,29.3l-16.4-12.9l29.9-17.4
			C1122.8,243.9,1123.2,244.2,1123.6,244.5z M1092.1,260.5l-18.2-14.3c0.3-0.5,0.5-1.1,0.5-1.8l47.5-2.4c0,0.1,0,0.1,0,0.1
			c0.1,0.3,0.2,0.5,0.4,0.8L1092.1,260.5z M1091.2,261l-25.7,15l4.7-27.9c0.4,0,0.7,0.1,1.1,0c0.8-0.2,1.4-0.6,1.9-1.1L1091.2,261z
			 M1045.5,289.4c-0.1-0.3-0.2-0.5-0.4-0.8l19.2-11.2l-3.4,20.1l-15.5-6.2C1045.6,290.7,1045.7,290,1045.5,289.4z M1060.8,298.5
			l-17.9,105.6l-0.9-109.8c0.2,0,0.3,0,0.5,0c1.2-0.3,2.1-1,2.6-2L1060.8,298.5z M1043.9,287l24.7-39.5c0.2,0.1,0.5,0.2,0.8,0.3
			l-4.8,28.7l-19.6,11.4C1044.6,287.6,1044.3,287.3,1043.9,287z M1129.8,240.3c-0.1-0.7-0.5-1.2-0.9-1.7l36.4-38.1l103.2,32.5
			c0,0.1,0,0.3,0,0.4l-138.7,7.1C1129.8,240.4,1129.8,240.4,1129.8,240.3z M1127.9,244.6l88.8,113.9c0,0,0,0,0,0l-106.8-84
			l14.7-29.5c0.7,0.2,1.4,0.4,2.2,0.2C1127.2,245,1127.6,244.8,1127.9,244.6z M1216,359.4L1092.2,310l17.2-34.6l106.7,83.9
			C1216,359.2,1216,359.3,1216,359.4z M1091.3,309.6l-29.5-11.8l3.6-21l26.4-15.4l16.9,13.3L1091.3,309.6z M1090.9,310.5l-47,94.5
			c-0.1,0-0.1-0.1-0.2-0.1l18-106.1L1090.9,310.5z M1040,405.7L989,360l50.5-66.3c0.5,0.3,1.1,0.5,1.7,0.5l0.9,110.5
			c-0.2,0-0.3,0-0.5,0C1041,405,1040.5,405.3,1040,405.7z M988.3,359.4L908.7,288l-2.2-10.5l131.2,12.8c0,0.3,0,0.6,0,0.9
			c0.2,0.8,0.6,1.4,1.2,2L988.3,359.4z M934.4,412.9L896,279.6c0.4-0.2,0.8-0.4,1.1-0.6l10.7,9.6L934.4,412.9z M904.7,274.5l0.4,2
			l-6.7-0.7c0-0.1,0-0.1,0-0.2L904.7,274.5z M905.3,277.4l2,9.4l-9.6-8.6c0.3-0.4,0.5-0.9,0.6-1.5L905.3,277.4z M821.4,419.6
			l-4.4-0.2l-2.3-5.3l72.5-124.6L821.4,419.6z M602.6,264l6.7,108.8c-0.1,0-0.2,0-0.3,0c-0.9,0.2-1.6,0.7-2.1,1.4l-41.3-28.5
			l35.2-80.2L602.6,264z M501.4,341l2.2,7.9l-6.4-1.6c0.1-0.5,0.1-1,0-1.6c-0.1-0.4-0.3-0.8-0.5-1.1L501.4,341z M526.5,428.2
			l-21.8-78.3l52.1,13.5l-28.5,65C527.7,428.2,527.1,428.1,526.5,428.2z M606.2,375.5L558,363l7.2-16.5l41.2,28.4
			C606.4,375.1,606.3,375.3,606.2,375.5z M530.3,429.7c-0.3-0.4-0.7-0.7-1.1-1l28.5-65.1l48.2,12.5c-0.1,0.5-0.1,1,0,1.6
			c0.1,0.4,0.3,0.7,0.5,1L530.3,429.7z M524.9,425.6l-27.1-68.4l-2.7-7.2c0.9-0.5,1.5-1.2,1.9-2.1l6.8,1.8L524.9,425.6z
			 M502.1,340.5l26-19.8l36.4,25.1l-7.4,16.9l-52.6-13.6L502.1,340.5z M528.8,320.2l70.4-53.5l-34.4,78.4L528.8,320.2z M615,377.3
			l106.3,3.8c0,0.1,0,0.2,0,0.3l-39.3,10.2L615,377.3z M802.7,417.1l-45.9-21.7l50.4,22.6l0,0L802.7,417.1z M814.1,414.9l1.9,4.3
			l-1-0.1c0-0.2,0-0.5,0-0.7c-0.2-1-0.8-1.7-1.6-2.3L814.1,414.9z M817.1,421.7c-0.5,0.3-0.8,0.6-1.1,1l-1.6-1.1
			c0.3-0.5,0.5-1,0.6-1.6l1.4,0.1L817.1,421.7z M813.7,422.3c0.1-0.1,0.3-0.3,0.4-0.4l1.6,1.1c0,0.1-0.1,0.1-0.1,0.2L813.7,422.3z
			 M807,419.1l-0.2-0.1L807,419.1C807,419.1,807,419.1,807,419.1z M745.8,405.1l-17.7-21.4c0.2-0.2,0.4-0.5,0.6-0.7l71.1,33.6
			L745.8,405.1z M744.4,404.7l-28.9-6.1l8.2-14.1c0.8,0.4,1.6,0.5,2.5,0.3c0.5-0.1,0.9-0.3,1.3-0.6L744.4,404.7z M714.6,398.4
			l-30.3-6.4l37.3-9.6c0.3,0.7,0.7,1.3,1.3,1.8L714.6,398.4z M781.6,346.5l27.5,69.3c-0.7,0.4-1.3,0.9-1.7,1.6L729,382.2
			c0.2-0.7,0.4-1.5,0.2-2.2c-0.1-0.3-0.2-0.5-0.3-0.7L781.6,346.5z M821,420.3l-0.6,1.1c-0.7-0.3-1.5-0.4-2.3-0.2
			c-0.1,0-0.2,0.1-0.3,0.1l-0.6-1.2L821,420.3z M815.1,426.1c0,0.1,0.1,0.2,0.2,0.3l-2.1,1l-1-4.2c0.3-0.1,0.6-0.2,0.9-0.4l2.2,1
			C815.1,424.5,814.9,425.3,815.1,426.1z M807.1,420.3c0,0.2,0.2,0.3,0.2,0.5l-33.8,17.8l-26.6-32.3l57,12.1l3.1,1.5
			C807.1,420,807,420.1,807.1,420.3z M621.5,407.2l-9.8-26.9c1-0.5,1.7-1.3,2-2.2l66.1,14L621.5,407.2z M620.7,407.4l-21,5.4
			l9.6-32.1c0.5,0.1,1.1,0.1,1.6,0c0,0,0.1,0,0.1,0L620.7,407.4z M598.7,413.1l-67.8,17.6c-0.1-0.1-0.1-0.3-0.2-0.4l76.2-51
			c0.4,0.5,1,0.9,1.6,1.1L598.7,413.1z M493.1,342.6l-4.1-45.9c0,0,0,0,0.1,0l12,43.1l-4.8,3.8l-0.2,0.2
			C495.3,343,494.3,342.6,493.1,342.6z M756.9,284.3l24.3,61.2l-52.8,32.8c-0.4-0.5-1-0.9-1.6-1.1l28.2-92.8c0.6,0.1,1.2,0.2,1.8,0
			C756.8,284.4,756.9,284.4,756.9,284.3z M903.9,270.9l0.6,2.7l-6.2,1.1c-0.1-0.1-0.1-0.2-0.2-0.4L903.9,270.9z M1108.7,218.8
			l14.5,19.4c-0.8,0.7-1.3,1.7-1.3,2.7l-47.5,2.4c0-0.1,0-0.1,0-0.2c-0.1-0.3-0.3-0.6-0.4-0.9L1108.7,218.8z M1216.3,147.1
			c0.9,0.7,2.1,1.1,3.4,0.8c0.3-0.1,0.6-0.2,0.8-0.4l49.6,82.9c-0.6,0.4-1,1-1.2,1.6l-102.8-32.4L1216.3,147.1z M1222.2,145.9
			l76,31.5l-24.4,52.6c-0.7-0.3-1.5-0.4-2.3-0.2c-0.3,0.1-0.5,0.2-0.8,0.4l-49.6-82.9C1221.6,146.8,1221.9,146.4,1222.2,145.9z
			 M1320.9,137.3l59.2,73l-80.8-33.5l18.2-39.1c0.7,0.2,1.5,0.4,2.2,0.2C1320.1,137.8,1320.5,137.6,1320.9,137.3z M1326.4,142.6
			l68,72.7c0,0.1-0.1,0.1-0.1,0.2c-0.1,0.2-0.3,0.3-0.4,0.5l-12-5L1326.4,142.6z M1422,260.5l-24.9-30.7l0.6-7.8c0.2,0,0.4,0,0.7,0
			c0.3-0.1,0.6-0.3,0.9-0.4L1422,260.5z M1396.1,228.6l-7.4-9.1l4.7-0.6c0,0,0,0,0,0c0.4,1.6,1.6,2.7,3.1,3L1396.1,228.6z
			 M1388.1,218.8l-5-6.1l10.4,4.3c-0.1,0.4-0.1,0.8-0.1,1.2L1388.1,218.8z M1427,261.3c-0.9-0.7-2.1-1.1-3.3-0.8
			c-0.3,0.1-0.6,0.2-0.9,0.4l-23.2-39.6c0.5-0.3,0.9-0.8,1.2-1.3c0.1-0.1,0.2-0.2,0.3-0.4c0.9,0.7,2.1,1.1,3.4,0.8
			c2.1-0.5,3.3-2.5,3-4.5l73.6-17c0.2,0.6,0.5,1.1,0.9,1.5L1427,261.3z M1276.4,232.8C1276.4,232.8,1276.4,232.8,1276.4,232.8
			c-0.3-1.2-1-2.1-1.9-2.6l24.4-52.5l82.6,34.2l5.7,7L1276.4,232.8z M933.9,425.7l-111.5-6.1l70.7-140c0.7,0.2,1.3,0.3,2.1,0.2
			l41.2,142.8C935,423.2,934.1,424.4,933.9,425.7z M772.7,439l-114.1,60.2c-0.3-0.4-0.6-0.7-1-1l57.3-98.7l30.5,6.5L772.7,439z
			 M654.3,497.6l-32.5-89.4l60.3-15.6l32,6.8l-57.2,98.5C656.1,497.5,655.2,497.3,654.3,497.6C654.3,497.6,654.3,497.6,654.3,497.6z
			 M524.9,428.9l-13-34.3l13.5,34.1C525.2,428.7,525,428.8,524.9,428.9z M438.2,388l28.7-53.7l22.7,11c-0.2,0.7-0.4,1.4-0.2,2.2
			c0.1,0.4,0.3,0.8,0.5,1.2L438.2,388z M491.4,295.4l35.1,24.3l-24.8,19.6l-11.9-42.8C490.5,296.2,491,295.9,491.4,295.4z
			 M528.1,319.5l71.8-56.9c0.2,0.3,0.5,0.5,0.8,0.7l-0.7,1.6L528.1,319.5z M635.1,264.6l-4.9,21.7l-24.3-24c0.3-0.3,0.4-0.7,0.6-1.1
			l0.4-0.3L635.1,264.6z M629.9,287.3l-19.5,85.5c-0.1,0-0.2,0-0.4,0l-6.8-109.1c0.1,0,0.2,0,0.3,0c0.6-0.1,1.1-0.4,1.6-0.8
			L629.9,287.3z M630.6,288l45.2,44.7L613,374.2c-0.5-0.6-1.1-0.9-1.8-1.2L630.6,288z M676.6,333.4l45.6,45c-0.4,0.6-0.8,1.2-0.8,2
			l-107.4-3.8c0-0.2,0-0.4,0-0.7c-0.1-0.3-0.3-0.6-0.4-0.9L676.6,333.4z M677.3,332.9l15.1-10l30.5,54.7c-0.1,0.1-0.1,0.1-0.2,0.2
			L677.3,332.9z M693.2,322.4l59.6-39.4c0.4,0.5,1,0.9,1.6,1.1L726.1,377c-0.6-0.1-1.2-0.2-1.8,0c-0.2,0-0.4,0.2-0.6,0.3
			L693.2,322.4z M765.6,303.9l17.7,40.4l-1.3,0.8L765.6,303.9z M783.7,345.3l29.5,67.6l-1.1,2.7c-0.6-0.2-1.3-0.2-1.9-0.1
			c-0.1,0-0.1,0.1-0.2,0.1l-27.6-69.4L783.7,345.3z M784.4,344.8l77.7-48.2l-48.5,115.1L784.4,344.8z M863.7,295.6l27.7-17.2
			c0.2,0.3,0.4,0.5,0.7,0.7l-77.6,133.4L863.7,295.6z M894.7,271.9l-0.4-45.8c0,0,0,0,0,0l9.4,43.7l-6.1,3.6
			C896.9,272.5,895.8,272,894.7,271.9z M945.6,246.5l30.6,14.1l-70.7,12.8l-0.7-3L945.6,246.5z M977.7,261.3l60.1,27.7
			c0,0.1-0.1,0.3-0.2,0.4l-131.4-12.9l-0.5-2.3L977.7,261.3z M979.2,261l73.2-13.2l-10.2,38.5c-0.5-0.1-1-0.1-1.6,0
			c-1.1,0.3-2,1-2.5,1.9L979.2,261z M1053.3,247.6l13.3-2.4c0.3,0.9,0.8,1.6,1.5,2.1l-24.7,39.5c-0.2-0.1-0.3-0.1-0.5-0.2
			L1053.3,247.6z M1053.6,246.6l1.1-4.1l11.8,1.5c0,0.1,0,0.2,0,0.2L1053.6,246.6z M1054.9,241.7l17.8-66.8c0.1,0,0.1,0,0.2,0
			l-2.6,65.2c-0.2,0-0.5,0-0.8,0c-1.5,0.4-2.6,1.6-3,3L1054.9,241.7z M1145.3,194.1l19.2,6.1l-36.2,37.9c-0.9-0.7-2.1-1.1-3.4-0.8
			c-0.4,0.1-0.8,0.3-1.2,0.6l-14.4-19.4L1145.3,194.1z M1146.4,193.4l69.3-46.8l-50.4,52.8L1146.4,193.4z M1222.7,143.9l92.1-9.2
			c0,0.1,0,0.1,0,0.2c0.3,1.1,1,2,1.9,2.6l-18.2,39.1l-76-31.6C1222.7,144.6,1222.7,144.2,1222.7,143.9z M1322.3,135.8l77.4,29.7
			l-2.3,48.1c-0.2,0-0.4,0-0.6,0c-0.8,0.2-1.4,0.6-1.9,1.2l-73.2-78.2C1321.9,136.3,1322.1,136.1,1322.3,135.8z M1400.7,165.9
			l80.4,30.9c-0.1,0.5-0.2,1-0.1,1.6l-73.6,17c-0.6-2-2.6-3.2-4.7-2.7c-1.1,0.3-2,0.9-2.5,1.8c-0.5-0.4-1.1-0.7-1.8-0.9
			L1400.7,165.9z M1497.6,227.1l-69.6,35.2c-0.1-0.2-0.3-0.3-0.4-0.5l55.1-60.8c0.9,0.7,2.1,1.1,3.3,0.8c0.1,0,0.2-0.1,0.2-0.1
			L1497.6,227.1z M1420.8,263.3l-25.7-5.2l1.9-26.9l24.8,30.6C1421.3,262.1,1421,262.7,1420.8,263.3z M1394,257.9l-117.6-23.8
			c0-0.1,0-0.3,0-0.5l111.2-14l8.4,10.3L1394,257.9z M1270.5,237.2l-49.9,120.3c-0.6-0.2-1.3-0.3-2-0.1c-0.4,0.1-0.8,0.3-1.2,0.5
			L1128.6,244c0.7-0.7,1.1-1.5,1.2-2.5l138.7-7.1c0,0.1,0,0.1,0,0.2C1268.8,235.8,1269.6,236.7,1270.5,237.2z M921.2,425.8l-98.2-1
			c0-0.2,0-0.4,0-0.6c-0.2-1.1-0.9-1.9-1.7-2.5l0.7-1.5L921.2,425.8z M819.3,429.1l11.1,72.8l-17-73.6l2.2-1
			C816.4,428.5,817.8,429.2,819.3,429.1z M829.8,506.8l-51.3-62.2l34.3-16l17.9,77.7C830.4,506.4,830.1,506.6,829.8,506.8z
			 M777.8,443.8l-3.7-4.5l33.6-17.7c0.8,1.2,2.3,1.9,3.9,1.7l1,4.4L777.8,443.8z M777,444.2l-104.5,48.7l100.8-53.2L777,444.2z
			 M584,462.5l-53.1-28.8c0.3-0.6,0.4-1.3,0.3-2l67.2-17.4L584,462.5z M583.7,463.3l-19.5,65.3c-0.5-0.1-1.1-0.1-1.6,0c0,0,0,0,0,0
			l-2.7-7.1l-31.1-85.8c0.7-0.3,1.2-0.7,1.6-1.3L583.7,463.3z M542.2,474.8l-14.6-38.7c0.1,0,0.3,0,0.5,0c0.1,0,0.1,0,0.1-0.1
			L542.2,474.8z M523.2,431.8l-98.8,0.8L491,350c0.9,0.6,2,0.8,3.1,0.5c0,0,0,0,0,0l29.9,79.2C523.6,430.3,523.3,431,523.2,431.8z
			 M423.3,432.6l-9,0.1l22.9-43l53.1-40.4c0,0,0,0.1,0.1,0.1L423.3,432.6z M393.5,465.6l-7.9-28.1l19.4,10.4l-9.6,17.9
			C394.8,465.6,394.2,465.5,393.5,465.6z M385.2,436.1l-0.6-2.3l28.1-0.2l-7.2,13.4L385.2,436.1z M383.9,435.4l-1.1-0.6
			c0.1-0.3,0.2-0.7,0.3-1l0.4,0L383.9,435.4z M347.4,305.4l34.7,123.4l-0.9,1.1c-0.8-0.5-1.7-0.6-2.6-0.5L347.4,305.4z M382.4,430
			l0.1,0.4l-0.5,0.4c0,0-0.1-0.1-0.1-0.1L382.4,430z M382.7,431.2l0.5,1.8h-0.2c0-0.2,0-0.3,0-0.5c-0.1-0.4-0.3-0.8-0.5-1.2
			L382.7,431.2z M383.6,430.5l51.7-39.3l-22.2,41.5l-28.8,0.2L383.6,430.5z M422.6,433.5l-12.8,15.8l-3.4-1.8l7.4-13.9L422.6,433.5z
			 M409.1,450.1l-12.3,15.2l9-16.9L409.1,450.1z M391.8,463.6l-11-26.6c0.6-0.3,1.1-0.7,1.5-1.2l2,1L391.8,463.6z M487,296.5
			c0.5,0.2,1,0.3,1.5,0.2l4.1,45.9c-0.1,0-0.2,0-0.3,0c-1.1,0.2-1.9,0.9-2.5,1.8l-22.6-11L487,296.5z M607.9,260.1l32.1-24.4
			c0.4,0.4,1,0.8,1.6,1l-6.2,27.1L607.9,260.1z M897.4,224.3l47,21.7l-39.8,23.3l-9.3-43.4C896.2,225.6,897,225.1,897.4,224.3z
			 M1076.9,172.6l67.2,21.2l-35.4,23.9l-32.7-43.8C1076.4,173.5,1076.7,173.1,1076.9,172.6z M1565.5,376.2l-66.6-148.7l86.8-43.9
			c0.6,0.8,1.4,1.4,2.4,1.6L1566.6,376c-0.3,0-0.5,0-0.8,0C1565.6,376.1,1565.6,376.1,1565.5,376.2z M284.3,362.6l52.4-87.6
			c0.7,0.3,1.4,0.5,2.2,0.4l38.8,154.4c-0.6,0.2-1.1,0.6-1.5,1L284.3,362.6z M459.5,330.7l6.4,3.1l-29.7,55.6l-52.8,40.2l-0.2-0.7
			L459.5,330.7z M460.1,330l25.1-32.3L466.3,333L460.1,330z M599,261.3c0.1,0.2,0.2,0.5,0.3,0.7l-72.1,57.2l-35.3-24.4
			c0.4-0.8,0.6-1.7,0.4-2.7L599,261.3z M606.7,258.9c-0.1-0.4-0.3-0.8-0.5-1.1l26.4-17.7l-25.8,19.6
			C606.7,259.5,606.7,259.2,606.7,258.9z M644.3,236.6l17.1,30.7l-25.3-3.4l6.2-27c0.5,0.1,0.9,0.1,1.4,0
			C643.9,236.8,644.1,236.7,644.3,236.6z M661.9,268.2l30,53.9l-15.3,10.1L630.9,287l5.1-22.2L661.9,268.2z M663.1,268.4l88.8,12
			c0,0.3,0,0.7,0,1c0.1,0.3,0.2,0.6,0.4,0.9l-59.6,39.3L663.1,268.4z M759.8,280.8l110.5-3.6l-7.5,17.8L784,343.9l-26.2-59.9
			C759,283.3,759.7,282.1,759.8,280.8z M871.5,277l19-0.6c0,0.1,0,0.2,0,0.4c0.1,0.3,0.2,0.5,0.3,0.7L864.4,294L871.5,277z
			 M871.8,276.2L893,226c0.3,0.1,0.5,0.1,0.8,0.1l0.4,45.8c-0.2,0-0.4,0-0.6,0c-1.8,0.4-2.9,1.9-3.1,3.7L871.8,276.2z M897.9,223.1
			l70.5,8.7l-23,13.5l-47.6-21.9C897.8,223.4,897.9,223.3,897.9,223.1z M970.1,232.1l83.8,10.4l-1.1,4.3l-75,13.6l-31.2-14.4
			L970.1,232.1z M971.4,231.3l98.8-58c0.5,0.6,1.1,1,1.8,1.2l-17.8,67L971.4,231.3z M1322.7,133c-0.2-0.8-0.6-1.4-1.2-1.9
			l83.3-106.4c0.4,0.3,0.9,0.5,1.5,0.6l-6.6,139.3l-77.1-29.6C1322.8,134.3,1322.9,133.7,1322.7,133z M1408.2,25.1l74.8,169.3
			c-0.6,0.4-1.1,0.9-1.5,1.6l-80.7-31l6.6-139.7c0.2,0,0.4,0,0.6,0C1408,25.2,1408.1,25.1,1408.2,25.1z M1592.8,182.7l136.4,33
			c-0.1,0.5-0.1,0.9,0,1.4c0.3,1.5,1.5,2.5,2.8,2.9l-18.2,92.3c-0.4,0-0.9-0.1-1.3,0c-0.5,0.1-1,0.4-1.4,0.7l-119-129.2
			C1592.4,183.6,1592.6,183.2,1592.8,182.7z M1709.5,317.3c0,0.1,0.1,0.2,0.1,0.3L1570.1,378c-0.6-1-1.4-1.6-2.5-1.9l21.5-190.8
			c0.3,0,0.6,0,0.8,0c0.5-0.1,1-0.4,1.4-0.7l119,129.2C1709.7,314.8,1709.2,316,1709.5,317.3z M1563.9,377.1L1428,266.6
			c0.6-0.9,0.8-2,0.5-3.1c0-0.2-0.2-0.3-0.2-0.4L1498,228l66.6,148.6C1564.3,376.8,1564.1,376.9,1563.9,377.1z M1423.1,268.2
			l-39.5,152.3l11.4-161.6l25.6,5.2c0,0.4-0.1,0.8,0,1.3C1421,266.7,1422,267.7,1423.1,268.2z M1379.2,423.9l-155.9-61.6
			c0.2-0.6,0.2-1.3,0.1-1.9c-0.3-1.2-1.1-2.1-2-2.6l49.9-120.3c0.7,0.2,1.3,0.3,2.1,0.1c1.4-0.3,2.5-1.4,2.9-2.7l117.8,23.8
			l-11.5,163.1c-0.2,0-0.4,0-0.7,0C1380.6,422.1,1379.7,422.9,1379.2,423.9z M933.9,427.3c0.1,0.5,0.3,0.9,0.6,1.2l-99.7,78.9
			c-0.8-0.8-1.9-1.3-3.1-1.2l-11.7-77.1c1.7-0.4,2.9-1.9,3.1-3.5l110.9,1.1C933.9,426.9,933.9,427,933.9,427.3z M828,509.5
			l-168.8-8.2c0-0.2,0-0.4,0-0.6c0-0.1-0.1-0.2-0.2-0.3L777.6,445l51.5,62.4C828.5,508,828.1,508.6,828,509.5z M651.3,502.4
			C651.3,502.4,651.3,502.5,651.3,502.4L567.2,531c-0.4-1-1.1-1.7-2.1-2.1l19.4-65.2l67.1,36.3C651.3,500.7,651.1,501.5,651.3,502.4
			z M428.6,459.4l-18-9.7l13.1-16.3l99.5-0.8c0,0.1,0,0.2,0,0.2L428.6,459.4z M427.1,459.8l-29.4,8.2c-0.2-0.5-0.5-1-0.9-1.3
			l13-16.2L427.1,459.8z M391.5,466.5l-36.1-32.6l19.8,0c0,0.1,0,0.3,0,0.4c0.5,2.2,2.7,3.5,4.8,3c0.2,0,0.3-0.1,0.4-0.2l11.9,28.8
			C392,466.1,391.7,466.3,391.5,466.5z M354.2,432.9l-52.4-47.3l73.7,46.1c-0.2,0.4-0.4,0.8-0.4,1.3L354.2,432.9z M275,371.8
			c0.1,0.3,0.3,0.6,0.4,0.9l-91,57.9c-0.3-0.3-0.6-0.6-0.9-0.8l34.9-61l56.5,2.5C275,371.4,275,371.5,275,371.8z M173.9,428.1
			L64.7,364l21.6-0.5L173.9,428.1z M63.6,363.4l-19.8-11.6c0.1-0.2,0.1-0.3,0.2-0.5l36.3,7.8l5.2,3.8L63.6,363.4z M61.9,363.5
			L8,364.7c0-0.2,0-0.3,0-0.5c0-0.1-0.1-0.3-0.2-0.4l28.8-11.9c0.8,1.6,2.6,2.6,4.5,2.2c1-0.2,1.7-0.8,2.3-1.5L61.9,363.5z
			 M352.7,432.8h-0.7l-68.7-58.9l13.5,8.5L352.7,432.8z M6.9,362.4l28.8-31.7c0.7,0.6,1.6,0.9,2.6,0.9l1.2,14.7c-0.1,0-0.2,0-0.4,0
			c-2.2,0.5-3.5,2.7-3,4.8c0,0.1,0.1,0.3,0.2,0.4L7.6,363.4C7.4,363,7.2,362.6,6.9,362.4z M42.2,328.1l188.7,2.7L71.5,346.6
			l-29.7-17.3C42,328.9,42.2,328.5,42.2,328.1z M243.9,329.5c-0.1-0.3-0.2-0.5-0.4-0.8l91.6-54.9c0.2,0.3,0.6,0.6,0.9,0.9
			l-52.3,87.6l-40.3-29.8C243.9,331.5,244.1,330.5,243.9,329.5z M342.3,272.4l142.1,20.3c0,0.4,0,0.7,0,1c0.2,0.8,0.6,1.4,1.2,1.9
			l-26.4,33.9l-117.1-56.9C342.2,272.6,342.3,272.5,342.3,272.4z M497.1,289.9l142.1-55.1c0,0.1,0,0.1,0.1,0.2l-0.2,0.1l-33.2,22.3
			c-0.9-1.2-2.5-1.9-4.1-1.5c-2.1,0.5-3.4,2.6-3,4.7L497.1,289.9z M646.3,234.8L752,279.3c0,0.1-0.1,0.1-0.1,0.2l-89.4-12.1
			l-17.4-31.2C645.6,235.9,646,235.4,646.3,234.8z M759.8,279.6c0-0.1-0.1-0.1-0.1-0.2l130.9-55.2c0.4,0.6,0.8,1.2,1.4,1.5
			l-21.3,50.6l-110.9,3.7C759.8,279.8,759.8,279.7,759.8,279.6z M898,221.6l171.7-49.1l-99.9,58.7l-71.7-8.9
			C898,222,898,221.8,898,221.6z M1076.1,168L1194.4,7.6c0.7,0.3,1.4,0.5,2.2,0.4l21.2,132c-1.9,0.5-3.1,2.3-2.9,4.2l-137.6,25.5
			C1077,169.1,1076.6,168.5,1076.1,168z M1200.2,4.9l202.8,16.6c0,0.2,0,0.5,0,0.7c0.2,0.8,0.6,1.4,1.2,1.9l-83.3,106.4
			c-0.9-0.6-2-0.8-3.1-0.5c-0.6,0.1-1.1,0.4-1.5,0.7l-117-124.1C1199.8,6.1,1200.1,5.5,1200.2,4.9z M1410.5,23.2l168.3,68.6
			c-0.2,0.6-0.2,1.3-0.1,1.9s0.5,1.2,0.9,1.7l-92.3,99.2c-0.9-0.7-2.1-1-3.3-0.8c-0.1,0-0.2,0.1-0.2,0.1l-74.8-169.3
			C1409.7,24.3,1410.2,23.8,1410.5,23.2z M1585.4,95.7l144.3,118.4c-0.2,0.2-0.2,0.5-0.3,0.8l-136.4-33c0.1-0.5,0.1-0.9,0-1.4
			c-0.4-1.9-2.1-3-3.9-3.1l-5.8-80.7c0.1,0,0.2,0,0.3,0C1584.4,96.6,1584.9,96.2,1585.4,95.7z M1850.8,344c0.1,0.4,0.3,0.7,0.5,1.1
			L1725.1,437c-0.7-0.8-1.7-1.2-2.8-1.3l-8.1-115.3c0.1,0,0.2,0,0.2,0c1.5-0.3,2.5-1.5,2.9-2.8l133.5,25.2
			C1850.8,343.2,1850.8,343.6,1850.8,344z M1718.6,437.8L1570.5,381c0.2-0.6,0.2-1.2,0.1-1.9c0-0.1-0.1-0.2-0.1-0.3l139.6-60.4
			c0.7,1.2,1.9,1.9,3.4,2l8.1,115.4c-0.1,0-0.2,0-0.2,0C1720.1,436,1719.1,436.8,1718.6,437.8z M1562.7,380.5l-176.3,43.9
			c-0.4-1.1-1.2-1.9-2.3-2.3l39.9-153.6c0.5,0.1,1,0.1,1.5,0c0.8-0.2,1.3-0.6,1.8-1.1l135.9,110.5
			C1562.7,378.6,1562.6,379.5,1562.7,380.5z M1378.8,426.7c0.1,0.4,0.3,0.8,0.5,1.1l-144.7,112.4c-0.7-0.7-1.6-1.1-2.6-1.2
			l-11.8-173.8c0.1,0,0.1,0,0.2,0c1.2-0.3,2.1-1.1,2.6-2l155.8,61.6C1378.7,425.4,1378.6,426,1378.8,426.7z M1228.1,541.6
			l-73.7-21.8c0.1-0.6,0.2-1.1,0-1.7c-0.3-1.1-1-2-1.9-2.6l65.9-150.4c0.3,0.1,0.6,0.2,1,0.2l11.8,173.8c-0.1,0-0.1,0-0.2,0
			C1229.5,539.4,1228.6,540.4,1228.1,541.6z M1146.5,519.9c0,0.2,0.1,0.3,0.2,0.5L1006,590.5c-0.5-0.8-1.2-1.3-2-1.6l38.3-176.2
			c0.4,0,0.8,0.1,1.3,0c0.6-0.1,1.1-0.4,1.6-0.8l102.3,104.6C1146.6,517.4,1146.2,518.6,1146.5,519.9z M835.7,511.4
			c0.2-0.7,0.4-1.4,0.2-2.2c-0.1-0.5-0.3-0.9-0.6-1.2l99.7-78.9c1,1,2.3,1.5,3.8,1.2c0,0,0.1,0,0.1,0l61.9,159
			c-0.6,0.3-1.1,0.7-1.5,1.3L835.7,511.4z M828,511c0.1,0.3,0.2,0.5,0.3,0.7l-143.7,86.7c-0.9-1.1-2.4-1.7-3.9-1.5l-24.2-91.7
			c1.4-0.5,2.4-1.7,2.6-3.1l168.8,8.2C828,510.6,828,510.8,828,511z M567.2,534.2c0.4-0.8,0.5-1.6,0.3-2.5c0,0,0,0,0-0.1l84.2-28.5
			c0.7,1.7,2.5,2.7,4.3,2.4l24.2,91.7c-0.8,0.3-1.4,0.8-1.9,1.4L567.2,534.2z M556.9,529.6l-158.9-59.1c0.1-0.5,0.2-1.1,0.1-1.6
			l30.2-8.5L556.9,529.6z M366.1,445l-13-11.1h0.7L366.1,445z M350.6,432.8l-165.4-0.4c0-0.1,0-0.3,0-0.4c-0.1-0.3-0.3-0.6-0.4-0.9
			l91-57.9c0.9,1.2,2.5,1.8,4.1,1.5c0.7-0.2,1.3-0.6,1.8-1L350.6,432.8z M176.1,430.5L7.9,366.1c0.1-0.2,0.1-0.5,0.1-0.7l54.9-1.3
			L176.1,430.5z"/>
	</g>
</g>
</svg>
