<?xml version="1.0" encoding="utf-8"?>
<!-- Generator: Adobe Illustrator 27.8.1, SVG Export Plug-In . SVG Version: 6.00 Build 0)  -->
<svg version="1.1" id="Layer_1" xmlns="http://www.w3.org/2000/svg" xmlns:xlink="http://www.w3.org/1999/xlink" x="0px" y="0px"
	 viewBox="0 0 3669.35 703.33" style="enable-background:new 0 0 3669.35 703.33;" xml:space="preserve">
<style type="text/css">
	.st0{opacity:0.8;}
</style>
<g>
	<g>
		<path class="st0" d="M1925.96,361.17c-1.25-0.29-2.46,0.09-3.4,0.83l-28.84-31.69c0.5-0.51,0.91-1.11,1.09-1.85
			c0.5-2.17-0.85-4.34-3.03-4.84c-2.17-0.5-4.34,0.85-4.85,3.03c-0.03,0.15,0,0.3-0.01,0.45l-193.81,2.74
			c-0.23-1.6-1.39-2.98-3.07-3.36c-1.63-0.38-3.25,0.29-4.17,1.56l-91.62-54.9c0.12-0.27,0.3-0.51,0.37-0.81
			c0.5-2.17-0.86-4.34-3.02-4.84c-2.18-0.5-4.35,0.85-4.85,3.02c-0.08,0.36-0.04,0.7-0.03,1.05l-142.14,20.28
			c-0.36-1.42-1.44-2.6-2.96-2.95c-1.83-0.42-3.58,0.51-4.42,2.09l-146.99-57.01c0.01-0.04,0.04-0.07,0.05-0.12
			c0.5-2.17-0.85-4.34-3.03-4.84c-2.17-0.5-4.35,0.85-4.85,3.03c-0.17,0.73-0.07,1.44,0.14,2.1l-105.74,44.47
			c-0.53-0.99-1.44-1.77-2.62-2.05c-1.79-0.41-3.53,0.48-4.38,2.01l-130.87-55.2c0.02-0.09,0.09-0.16,0.11-0.25
			c0.5-2.17-0.85-4.34-3.03-4.84c-1.94-0.45-3.8,0.62-4.56,2.39l-171.74-49.14c0.32-2.07-0.96-4.08-3.04-4.56
			c-1.01-0.23-2-0.03-2.84,0.43L735.53,6.9c0.54-0.52,1-1.15,1.18-1.94c0.5-2.17-0.85-4.35-3.03-4.85c-2.18-0.5-4.34,0.85-4.85,3.03
			c-0.05,0.23-0.01,0.46-0.02,0.69L526.01,20.41c-0.33-1.47-1.44-2.72-3.01-3.08c-2.18-0.5-4.35,0.85-4.85,3.02
			c-0.16,0.67-0.08,1.33,0.09,1.95L349.89,90.85c-0.54-0.97-1.43-1.72-2.59-1.98c-2.18-0.5-4.34,0.85-4.84,3.03
			c-0.25,1.09-0.03,2.18,0.52,3.06L198.64,213.39c-0.5-0.48-1.09-0.88-1.82-1.05c-2.17-0.5-4.34,0.85-4.84,3.03
			c-0.08,0.36-0.04,0.7-0.03,1.05L7.85,246.64c-0.4-1.35-1.44-2.47-2.9-2.8c-2.18-0.5-4.35,0.85-4.85,3.03
			c-0.5,2.17,0.85,4.34,3.03,4.84c1.07,0.24,2.12,0.03,3-0.49l65.55,88.93c-0.6,0.54-1.1,1.21-1.29,2.05
			c-0.5,2.18,0.85,4.35,3.03,4.85c1.47,0.34,2.89-0.22,3.84-1.25l126.24,91.9c-0.19,0.33-0.39,0.66-0.48,1.05
			c-0.5,2.17,0.85,4.35,3.03,4.85c2.17,0.5,4.34-0.85,4.85-3.03c0.15-0.65,0.09-1.29-0.07-1.9l148.11-56.83
			c0.53,1.01,1.43,1.81,2.63,2.09c1.98,0.46,3.89-0.66,4.61-2.5l176.26,43.87c-0.24,2.02,1.01,3.95,3.04,4.41
			c1.4,0.32,2.76-0.19,3.71-1.13L693.87,541c-0.21,0.35-0.42,0.71-0.51,1.13c-0.5,2.17,0.85,4.34,3.03,4.84
			c2.17,0.5,4.34-0.85,4.84-3.02c0.14-0.61,0.11-1.19-0.01-1.75l73.74-21.8c0.47,1.21,1.44,2.21,2.8,2.52
			c1.7,0.39,3.37-0.38,4.27-1.76l140.71,70.15c-0.06,0.16-0.16,0.28-0.2,0.45c-0.5,2.17,0.85,4.34,3.03,4.84
			c2.17,0.5,4.34-0.85,4.84-3.03c0.18-0.76,0.06-1.49-0.18-2.18l163.55-79.09c0.55,0.85,1.41,1.51,2.48,1.75
			c1.58,0.37,3.15-0.27,4.08-1.47l143.66,86.69c-0.11,0.24-0.27,0.45-0.33,0.72c-0.5,2.18,0.85,4.35,3.03,4.85
			c2.17,0.5,4.34-0.85,4.84-3.03c0.21-0.89,0.04-1.76-0.31-2.54l111.11-64.37c0.55,0.77,1.34,1.37,2.33,1.6
			c2.17,0.5,4.34-0.85,4.85-3.03c0.15-0.63,0.1-1.25-0.05-1.85l162.05-60.27c0.53,1.02,1.43,1.83,2.64,2.1
			c2.17,0.5,4.34-0.85,4.85-3.03c0.27-1.15-0.02-2.28-0.63-3.18l38.94-33.39l166.59-0.38c0.21,1.63,1.37,3.03,3.07,3.42
			c2.17,0.5,4.34-0.85,4.85-3.03c0.15-0.64,0.09-1.27-0.06-1.87l169.78-65.01c0.53,1,1.43,1.78,2.62,2.06
			c2.17,0.5,4.34-0.85,4.84-3.03C1929.49,363.84,1928.13,361.68,1925.96,361.17z M8.01,247.63L192.1,217.4
			c0.15,0.52,0.4,0.98,0.74,1.39L76.75,339.9c-0.44-0.33-0.94-0.59-1.52-0.72c-1.06-0.25-2.13-0.04-2.99,0.49L6.68,250.73
			c0.61-0.54,1.1-1.2,1.3-2.05C8.06,248.33,8.02,247.98,8.01,247.63z M1368.8,530.22c-0.35-0.49-0.83-0.87-1.37-1.16l35.13-92.9
			c1.38-0.22,2.53-1.18,3.06-2.52l93.86,26.32L1368.8,530.22z M927.37,588.73c-0.43-0.1-0.85-0.07-1.27-0.04l-38.25-176.21
			c1.23-0.43,2.23-1.39,2.58-2.73l96.87,16.27c-0.12,1.6,0.69,3.07,2.08,3.81l-61.91,158.94
			C927.43,588.76,927.4,588.74,927.37,588.73z M779.58,515.04c-0.72-0.17-1.42-0.07-2.07,0.13l-65.88-150.42
			c0.75-0.44,1.31-1.14,1.65-1.98l169.31,45.41c-0.16,1.15,0.18,2.23,0.88,3.08L781.15,515.82
			C780.69,515.46,780.18,515.18,779.58,515.04z M77.39,340.59l116.09-121.11c0.44,0.33,0.95,0.6,1.52,0.73
			c0.46,0.11,0.9,0.09,1.35,0.03l18.19,92.34c-1.36,0.4-2.5,1.44-2.84,2.92c-0.1,0.42-0.07,0.83-0.03,1.24L78.13,341.97
			C77.97,341.47,77.73,341.01,77.39,340.59z M348.79,95.99l92.31,99.17c-0.41,0.47-0.75,1.01-0.91,1.65l-96.19-15.14
			c0.13-1.94-1.09-3.76-3.04-4.21c-0.11-0.02-0.21,0.01-0.31,0l5.77-80.69C347.3,96.76,348.11,96.5,348.79,95.99z M731.74,7.92
			l-21.16,132.03c-1.92-0.1-3.71,1.11-4.16,3.05c-0.01,0.06,0.01,0.12,0,0.18L614.3,134c0.01-0.98-0.3-1.87-0.91-2.6L730.37,7.28
			C730.77,7.58,731.24,7.79,731.74,7.92z M851.81,170.58c-0.03,0.34-0.08,0.68-0.03,1.01l-67.89,21.42l-70-47.29
			c0.11-0.22,0.23-0.43,0.31-0.67L851.81,170.58z M1587.29,273.58c0.43,0.66,1.09,1.14,1.84,1.47l-42.91,152.76l-75.77-97.5
			L1587.29,273.58z M1691.44,333.68c0.68-0.47,1.18-1.16,1.46-1.98l133.11,30.74c-0.01,0.06,0,0.12-0.01,0.18l-115.09,5.06
			L1691.44,333.68z M1825.98,363.58c0.1,0.61,0.36,1.17,0.72,1.67l-76.06,64.89c-0.51-0.51-1.12-0.93-1.87-1.1
			c-0.9-0.21-1.78-0.03-2.56,0.32l-34.77-60.74L1825.98,363.58z M1827.18,365.75c0.51,0.51,1.12,0.93,1.87,1.11
			c2.17,0.5,4.34-0.85,4.84-3.03c0.04-0.17,0-0.33,0.02-0.49l7.38,0.17l-84.42,62.23L1827.18,365.75z M1833.93,362.69
			c-0.01-0.12,0.03-0.24,0.01-0.36l12.65-2.73l-4.44,3.28L1833.93,362.69z M1652.72,367.79c-0.48-0.41-1.02-0.74-1.67-0.89
			c-0.51-0.12-1.01-0.11-1.5-0.04l31.54-28.48L1652.72,367.79z M1646.24,369.85c-0.01,0.03-0.03,0.05-0.04,0.08
			c-0.22,0.96-0.03,1.89,0.38,2.7l-11.12,6.95L1646.24,369.85z M1653.07,368.17l33.49-34.72c0.48,0.41,1.02,0.74,1.67,0.89
			c0.9,0.21,1.77,0.03,2.55-0.32l19.3,33.71l-55.97,2.46C1653.99,369.42,1653.59,368.74,1653.07,368.17z M1884.97,350.77
			l-35.09,7.58l13.78-10.16l21.32,2.11C1884.98,350.46,1884.94,350.62,1884.97,350.77z M1885.01,349.27
			C1885.01,349.27,1885.01,349.27,1885.01,349.27l-20.11-1.99l23.09-17.02c0.53,0.57,1.17,1.04,1.98,1.22
			c0.13,0.03,0.25,0,0.37,0.01l-1.25,14.73C1887.19,346.16,1885.45,347.36,1885.01,349.27z M1863.49,347.15l-4.95-0.49l26.49-15.39
			L1863.49,347.15z M1862.26,348.05l-14.62,10.78l-13.85,2.99c-0.06-0.22-0.15-0.44-0.25-0.65l23.49-13.64L1862.26,348.05z
			 M1833.28,360.67c-0.55-0.81-1.38-1.45-2.41-1.68c-2.03-0.47-4,0.72-4.67,2.65l-129.93-30.01l159.8,15.82L1833.28,360.67z
			 M1648.11,366.74l-2.24-3.73l35.37-26.19L1648.11,366.74z M1647.56,367.24l-17.18,15.51l-71.65,44.76l86.56-64.07L1647.56,367.24z
			 M1277.16,499.23c-0.39-0.57-0.95-1-1.6-1.31l32.5-89.5l21.7,5.61l14.56,48.85L1277.16,499.23z M890.49,409.05
			c0.07-0.95-0.14-1.85-0.66-2.59l50.89-45.64l47.77,62.65c-0.52,0.5-0.94,1.1-1.14,1.85L890.49,409.05z M713.55,361.84
			c0.07-0.54,0.05-1.06-0.09-1.56l123.88-49.43l46.97,94.53c-0.66,0.44-1.15,1.1-1.46,1.87L713.55,361.84z M343.79,182.75
			c0.05-0.14,0.14-0.24,0.17-0.39l96.19,15.14c-0.1,1.51,0.61,2.9,1.87,3.67l-11.39,25.43L343.79,182.75z M854.85,174.83
			c0.27,0.06,0.52,0.01,0.78,0.02l2.57,65.25c-1.01,0.11-1.91,0.6-2.57,1.36l-34.68-23.43l32.69-43.76
			C854,174.5,854.4,174.72,854.85,174.83z M941.4,360.21l78.66-70.54l-28.51,132.71c-0.85-0.06-1.67,0.08-2.37,0.5L941.4,360.21z
			 M806.57,243.48l29.87,17.42l-16.41,12.91l-14.55-29.28C805.91,244.25,806.28,243.9,806.57,243.48z M806.85,242.88
			c0.12-0.26,0.29-0.5,0.36-0.79c0.01-0.05-0.01-0.09,0-0.14l47.46,2.44c0.05,0.63,0.2,1.24,0.52,1.77l-18.19,14.3L806.85,242.88z
			 M855.85,246.9c0.52,0.51,1.12,0.94,1.88,1.11c0.38,0.09,0.75,0.05,1.12,0.03l4.73,27.92L837.92,261L855.85,246.9z M883.65,291.31
			l-15.51,6.19l-3.4-20.09l19.2,11.19c-0.13,0.26-0.3,0.5-0.36,0.8C883.43,290.05,883.49,290.7,883.65,291.31z M884.01,292.23
			c0.54,0.97,1.44,1.74,2.6,2.01c0.17,0.04,0.34-0.01,0.51,0.01l-0.92,109.83l-17.89-105.59L884.01,292.23z M884.21,287.99
			l-19.62-11.44l-4.85-28.66c0.27-0.08,0.54-0.17,0.79-0.3l24.65,39.46C884.82,287.32,884.48,287.61,884.21,287.99z M799.32,240.51
			l-138.69-7.13c-0.01-0.13,0.03-0.27,0.01-0.4l103.18-32.54l36.42,38.13c-0.42,0.48-0.76,1.03-0.91,1.69
			C799.31,240.35,799.34,240.43,799.32,240.51z M802.36,245.11c0.77,0.18,1.52,0.05,2.22-0.2l14.66,29.51l-106.85,84.04
			c-0.01-0.01-0.01-0.02-0.02-0.03l88.8-113.87C801.53,244.8,801.92,245.01,802.36,245.11z M713.05,359.2l106.65-83.87l17.21,34.63
			l-123.8,49.39C713.08,359.3,713.08,359.25,713.05,359.2z M820.48,274.71l16.88-13.27l26.36,15.37l3.56,21.03l-29.47,11.76
			L820.48,274.71z M867.45,298.84l17.97,106.07c-0.07,0.02-0.14,0.06-0.21,0.08l-46.96-94.51L867.45,298.84z M887.44,404.8
			c-0.17-0.04-0.34,0.01-0.51-0.01l0.92-110.52c0.62-0.05,1.21-0.21,1.73-0.51l50.52,66.26l-50.96,45.7
			C888.65,405.3,888.1,404.96,887.44,404.8z M890.27,293.16c0.54-0.53,1-1.15,1.18-1.95c0.07-0.3,0.02-0.58,0.02-0.87l131.21-12.84
			l-2.25,10.49l-79.65,71.42L890.27,293.16z M1021.4,288.47l10.65-9.56c0.32,0.27,0.69,0.47,1.1,0.64l-38.48,133.34L1021.4,288.47z
			 M1030.71,275.66c0,0.07-0.01,0.13-0.01,0.2l-6.73,0.66l0.43-2.01L1030.71,275.66z M1030.72,276.7c0.11,0.54,0.33,1.03,0.64,1.47
			l-9.6,8.61l2.02-9.39L1030.72,276.7z M1041.97,289.37l72.49,124.64l-2.32,5.31l-4.41,0.24L1041.97,289.37z M1328.31,265.45
			l35.16,80.2l-41.33,28.55c-0.54-0.63-1.23-1.15-2.1-1.35c-0.1-0.02-0.19,0.01-0.3-0.01l6.74-108.8L1328.31,265.45z
			 M1432.45,344.59c-0.2,0.34-0.4,0.68-0.5,1.09c-0.12,0.53-0.12,1.05-0.04,1.56l-6.37,1.65l2.19-7.88L1432.45,344.59z
			 M1400.8,428.37l-28.47-64.96l52.06-13.47l-21.79,78.3C1401.97,428.14,1401.37,428.2,1400.8,428.37z M1322.64,374.88l41.17-28.44
			l7.25,16.53l-48.2,12.48C1322.79,375.26,1322.74,375.06,1322.64,374.88z M1322.61,378.72c0.18-0.32,0.37-0.64,0.46-1.02
			c0.12-0.53,0.12-1.05,0.04-1.56l48.25-12.49l28.52,65.06c-0.42,0.24-0.78,0.58-1.08,0.96L1322.61,378.72z M1425.31,349.71
			l6.84-1.78c0.34,0.93,0.97,1.68,1.86,2.15l-2.72,7.18l-27.12,68.36L1425.31,349.71z M1424.61,349.12l-52.59,13.61l-7.39-16.86
			l36.41-25.15l25.98,19.75L1424.61,349.12z M1364.29,345.09l-34.38-78.42l70.42,53.52L1364.29,345.09z M1247.01,391.54
			l-39.26-10.17c0.01-0.09,0-0.17,0.01-0.26l106.3-3.77L1247.01,391.54z M1121.85,418.05L1121.85,418.05l50.42-22.64l-45.91,21.69
			L1121.85,418.05z M1115.73,416.17c-0.74,0.56-1.33,1.32-1.55,2.29c-0.06,0.25-0.01,0.49-0.02,0.74l-1.03,0.06l1.89-4.33
			L1115.73,416.17z M1112.78,420.05l1.36-0.07c0.09,0.58,0.3,1.12,0.61,1.6l-1.56,1.12c-0.31-0.4-0.69-0.72-1.14-0.98
			L1112.78,420.05z M1113.54,423.15c-0.03-0.06-0.07-0.13-0.1-0.19l1.56-1.12c0.12,0.15,0.26,0.29,0.4,0.43L1113.54,423.15z
			 M1122.08,419.06l0.2-0.04l-0.2,0.09C1122.08,419.1,1122.08,419.08,1122.08,419.06z M1129.27,416.48l71.06-33.56
			c0.16,0.27,0.39,0.5,0.61,0.73l-17.66,21.4L1129.27,416.48z M1201.62,384.25c0.39,0.25,0.8,0.47,1.27,0.58
			c0.9,0.2,1.77,0.03,2.54-0.32l8.19,14.1l-28.92,6.12L1201.62,384.25z M1206.15,384.12c0.59-0.43,1.04-1.04,1.33-1.75l37.27,9.65
			l-30.28,6.41L1206.15,384.12z M1200.2,379.25c-0.11,0.24-0.27,0.46-0.33,0.73c-0.18,0.78-0.06,1.53,0.19,2.23l-78.45,35.23
			c-0.37-0.68-0.95-1.21-1.66-1.58l27.53-69.33L1200.2,379.25z M1111.8,420.1l-0.55,1.25c-0.1-0.03-0.18-0.1-0.28-0.13
			c-0.8-0.19-1.57-0.05-2.28,0.22l-0.58-1.14L1111.8,420.1z M1113.79,423.79l2.2-1.04c0.28,0.18,0.59,0.31,0.92,0.42l-0.97,4.2
			l-2.08-0.97c0.04-0.12,0.12-0.21,0.15-0.33C1114.19,425.28,1114.05,424.51,1113.79,423.79z M1122.06,419.88l3.12-1.48l57.04-12.08
			l-26.64,32.28l-33.77-17.81c0.07-0.18,0.19-0.32,0.23-0.51C1122.08,420.15,1122.04,420.02,1122.06,419.88z M1249.27,392.13
			l66.12-14c0.35,0.99,1.05,1.78,2.02,2.25l-9.76,26.87L1249.27,392.13z M1318.13,380.7c0.03,0.01,0.06,0.03,0.09,0.04
			c0.55,0.13,1.11,0.13,1.63,0.03l9.57,32.1l-21-5.44L1318.13,380.7z M1320.68,380.45c0.61-0.26,1.16-0.63,1.58-1.15l76.19,50.96
			c-0.08,0.14-0.13,0.28-0.2,0.43l-67.83-17.56L1320.68,380.45z M1433.05,343.81l-0.23-0.18l-4.76-3.77l12-43.11
			c0.01,0,0.03,0,0.05,0l-4.12,45.87C1434.85,342.6,1433.81,343.03,1433.05,343.81z M1172.35,284.42c0.6,0.14,1.18,0.11,1.75-0.01
			l28.22,92.8c-0.63,0.25-1.19,0.62-1.63,1.15l-52.83-32.79l24.31-61.23C1172.25,284.36,1172.29,284.4,1172.35,284.42z
			 M1031.01,274.36c-0.05,0.13-0.12,0.24-0.17,0.37l-6.25-1.13l0.58-2.67L1031.01,274.36z M855.11,242.26
			c-0.15,0.29-0.33,0.57-0.41,0.9c-0.01,0.06,0.01,0.13-0.01,0.19l-47.46-2.44c-0.07-1.07-0.55-2.04-1.34-2.73l14.47-19.39
			L855.11,242.26z M763.01,199.59L660.26,232c-0.29-0.62-0.67-1.19-1.24-1.59l49.61-82.94c0.27,0.13,0.52,0.3,0.82,0.38
			c1.23,0.28,2.43-0.08,3.36-0.8L763.01,199.59z M708,147.18l-49.61,82.95c-0.27-0.14-0.52-0.31-0.82-0.38
			c-0.79-0.18-1.55-0.05-2.26,0.21l-24.4-52.55l75.96-31.51C707.16,146.39,707.53,146.84,708,147.18z M609.43,137.88
			c0.79,0.18,1.54,0.05,2.25-0.2l18.16,39.09l-80.82,33.53l59.17-72.98C608.57,137.56,608.97,137.77,609.43,137.88z M547.25,211.04
			l-12.04,5c-0.1-0.19-0.25-0.34-0.38-0.5c-0.04-0.06-0.08-0.12-0.12-0.18l67.99-72.71L547.25,211.04z M529.95,221.56
			c0.28,0.14,0.55,0.32,0.87,0.4c0.22,0.05,0.43,0,0.66,0.01l0.55,7.84l-24.92,30.74L529.95,221.56z M532.53,221.96
			c1.5-0.31,2.76-1.44,3.13-3.03c0-0.01,0-0.02,0-0.03l4.74,0.6l-7.4,9.13L532.53,221.96z M535.69,218.13
			c0.01-0.4-0.01-0.79-0.11-1.16l10.36-4.3l-4.97,6.13L535.69,218.13z M447,200.5c0.4-0.43,0.72-0.93,0.91-1.51l73.62,17
			c-0.3,2.06,0.97,4.04,3.04,4.52c1.24,0.28,2.44-0.08,3.37-0.82c0.09,0.15,0.23,0.25,0.33,0.38c0.3,0.51,0.72,0.94,1.21,1.27
			l-23.18,39.59c-0.29-0.15-0.55-0.32-0.87-0.4c-1.23-0.28-2.41,0.06-3.34,0.78L447,200.5z M542.03,218.92l5.67-6.99l82.56-34.25
			l24.4,52.53c-0.94,0.54-1.67,1.44-1.93,2.57c0,0.01,0,0.02,0,0.03L542.03,218.92z M992.75,422.67l41.22-142.83
			c0.72,0.12,1.41,0.01,2.06-0.22l70.72,139.99l-111.53,6.12C995.02,424.35,994.07,423.21,992.75,422.67z M1183.65,406.03
			l30.53-6.47l57.33,98.7c-0.37,0.27-0.71,0.58-0.97,0.96l-114.13-60.18L1183.65,406.03z M1274.76,497.55
			c-0.9-0.2-1.76-0.03-2.54,0.32l-57.2-98.49l31.99-6.77l60.3,15.61l-32.46,89.37C1274.82,497.58,1274.79,497.56,1274.76,497.55z
			 M1403.69,428.63l13.53-34.1l-12.99,34.34C1404.07,428.76,1403.86,428.71,1403.69,428.63z M1439.29,348.66
			c0.22-0.36,0.43-0.73,0.53-1.17c0.18-0.77,0.05-1.51-0.19-2.21l22.65-11l28.65,53.67L1439.29,348.66z M1439.26,296.5l-11.92,42.81
			l-24.78-19.64l35.14-24.27C1438.12,295.88,1438.64,296.25,1439.26,296.5z M1329.11,264.83l-0.68-1.56
			c0.3-0.18,0.54-0.43,0.79-0.69l71.79,56.89L1329.11,264.83z M1322.2,260.8l0.44,0.34c0.15,0.4,0.33,0.78,0.6,1.11l-24.32,24.02
			l-4.94-21.67L1322.2,260.8z M1323.87,262.93c0.46,0.37,0.98,0.67,1.6,0.81c0.1,0.02,0.2-0.01,0.3,0.01l-6.76,109.08
			c-0.12,0-0.24-0.02-0.36-0.01l-19.49-85.49L1323.87,262.93z M1317.84,373.05c-0.69,0.23-1.3,0.62-1.76,1.17l-62.86-41.5
			l45.24-44.69L1317.84,373.05z M1315.59,375.02c-0.14,0.29-0.32,0.55-0.4,0.87c-0.05,0.23-0.01,0.46-0.02,0.68l-107.4,3.81
			c-0.09-0.73-0.4-1.38-0.84-1.95l45.61-45.05L1315.59,375.02z M1206.31,377.77c-0.06-0.05-0.09-0.11-0.15-0.16l30.51-54.7
			l15.09,9.97L1206.31,377.77z M1205.32,377.23c-0.21-0.09-0.38-0.23-0.61-0.27c-0.6-0.14-1.18-0.11-1.75,0.01l-28.22-92.81
			c0.61-0.24,1.15-0.6,1.57-1.1l59.58,39.35L1205.32,377.23z M1147.14,345.12l-1.29-0.8l17.65-40.41L1147.14,345.12z
			 M1146.76,346.08l-27.57,69.43c-0.06-0.01-0.1-0.06-0.17-0.07c-0.67-0.16-1.33-0.08-1.95,0.08l-1.14-2.7l29.51-67.56
			L1146.76,346.08z M1115.47,411.71l-48.49-115.15l77.71,48.24L1115.47,411.71z M1114.64,412.5l-77.6-133.41
			c0.27-0.2,0.51-0.41,0.72-0.67l27.65,17.16L1114.64,412.5z M1031.49,273.42l-6.1-3.57l9.39-43.71c0.01,0.01,0.02,0.01,0.03,0.01
			l-0.37,45.78C1033.27,271.99,1032.2,272.52,1031.49,273.42z M1024.21,270.37l-0.65,3.04l-70.68-12.78l30.64-14.15L1024.21,270.37z
			 M1023.36,274.34l-0.49,2.3l-131.41,12.86c-0.03-0.16-0.12-0.29-0.17-0.44l60.09-27.73L1023.36,274.34z M890.97,288.22
			c-0.55-0.9-1.44-1.6-2.54-1.86c-0.53-0.12-1.07-0.13-1.57-0.04l-10.24-38.52l73.24,13.24L890.97,288.22z M886.14,286.58
			c-0.18,0.06-0.36,0.11-0.52,0.19l-24.66-39.46c0.69-0.5,1.22-1.21,1.49-2.07l13.33,2.41L886.14,286.58z M862.59,244.31
			c0-0.08,0.01-0.17,0-0.25l11.84-1.46l1.08,4.05L862.59,244.31z M862.52,243.12c-0.35-1.43-1.44-2.62-2.97-2.98
			c-0.26-0.06-0.52-0.01-0.77-0.02l-2.57-65.25c0.08-0.01,0.15,0.02,0.22,0.01l17.76,66.8L862.52,243.12z M819.85,218.44
			l-14.45,19.35c-0.37-0.23-0.77-0.45-1.22-0.56c-1.24-0.28-2.43,0.08-3.36,0.8l-36.16-37.86l19.19-6.05L819.85,218.44z
			 M763.85,199.33l-50.4-52.77l69.29,46.81L763.85,199.33z M706.52,144.96l-76.03,31.55l-18.15-39.08c0.94-0.54,1.67-1.44,1.93-2.57
			c0.02-0.06,0-0.12,0.01-0.18l92.12,9.18C706.4,144.23,706.42,144.6,706.52,144.96z M607.38,136.58l-73.16,78.24
			c-0.53-0.54-1.15-0.99-1.94-1.17c-0.2-0.04-0.39,0-0.59-0.01l-2.27-48.11l77.39-29.72C606.96,136.1,607.16,136.34,607.38,136.58z
			 M530.68,213.61c-0.67,0.12-1.25,0.44-1.78,0.86c-0.55-0.89-1.43-1.57-2.53-1.83c-2.07-0.48-4.08,0.75-4.71,2.73l-73.62-17
			c0.08-0.54,0.05-1.07-0.08-1.57l80.45-30.89L530.68,213.61z M442.95,201.6c0.09,0.03,0.16,0.09,0.25,0.11
			c1.22,0.28,2.41-0.07,3.34-0.78l55.09,60.82c-0.15,0.17-0.32,0.31-0.44,0.5l-69.64-35.18L442.95,201.6z M507.35,261.7l24.77-30.56
			l1.9,26.92l-25.72,5.21C508.11,262.67,507.79,262.15,507.35,261.7z M533.1,229.94l8.37-10.32l111.24,13.96
			c0,0.16-0.03,0.32-0.01,0.47l-117.63,23.8L533.1,229.94z M660.6,234.6c0.01-0.06,0-0.13,0.01-0.19l138.69,7.13
			c0.09,0.96,0.52,1.82,1.21,2.49l-88.8,113.86c-0.37-0.22-0.75-0.43-1.19-0.54c-0.71-0.17-1.4-0.07-2.05,0.12l-49.9-120.27
			C659.55,236.68,660.33,235.77,660.6,234.6z M1107.13,420.36l0.73,1.45c-0.84,0.55-1.49,1.4-1.73,2.45c-0.05,0.2,0,0.39-0.02,0.58
			l-98.18,0.96L1107.13,420.36z M1113.46,427.27l2.25,1.05l-17,73.6l11.07-72.81C1111.29,429.23,1112.68,428.53,1113.46,427.27z
			 M1098.36,506.32l17.95-77.71l34.33,16l-51.3,62.16C1099.04,506.58,1098.71,506.43,1098.36,506.32z M1116.53,427.66l1-4.35
			c1.55,0.23,3.04-0.42,3.89-1.66l33.55,17.69l-3.71,4.5L1116.53,427.66z M1155.8,439.77l100.83,53.17l-104.52-48.71L1155.8,439.77z
			 M1330.77,414.29l67.21,17.4c-0.08,0.7,0.02,1.37,0.28,2l-53.14,28.76L1330.77,414.29z M1398.62,434.45
			c0.4,0.59,0.98,1.02,1.64,1.33l-31.09,85.81l-2.67,7.06c-0.01-0.01-0.02-0.01-0.03-0.01c-0.55-0.13-1.1-0.13-1.63-0.03
			l-19.48-65.33L1398.62,434.45z M1400.89,436.06c0.05,0.01,0.08,0.04,0.13,0.06c0.16,0.03,0.31-0.01,0.46,0.01l-14.62,38.67
			L1400.89,436.06z M1405.01,429.67l29.94-79.16c0.01,0,0.02,0.01,0.03,0.01c1.1,0.25,2.2,0.02,3.08-0.54l66.66,82.64l-98.82-0.82
			C1405.83,430.99,1405.51,430.28,1405.01,429.67z M1438.7,349.38c0.03-0.02,0.05-0.05,0.08-0.07l53.08,40.39l22.95,43l-8.96-0.08
			L1438.7,349.38z M1533.65,465.81l-9.55-17.89l19.41-10.43l-7.89,28.09C1534.93,465.47,1534.27,465.57,1533.65,465.81z
			 M1523.6,446.99l-7.17-13.44l28.11,0.23l-0.64,2.29L1523.6,446.99z M1545.62,433.8l0.39,0.01c0.03,0.36,0.14,0.68,0.26,1.01
			l-1.09,0.59L1545.62,433.8z M1550.5,429.46c-0.93-0.12-1.84,0.04-2.6,0.5l-0.88-1.14l34.65-123.37L1550.5,429.46z M1547.19,430.59
			c-0.03,0.03-0.08,0.07-0.11,0.1l-0.48-0.37l0.1-0.36L1547.19,430.59z M1546.57,431.34c-0.22,0.36-0.43,0.73-0.53,1.16
			c-0.03,0.16,0,0.3-0.01,0.46l-0.17,0l0.5-1.78L1546.57,431.34z M1544.78,432.95l-28.81-0.24l-22.17-41.52l51.66,39.31
			L1544.78,432.95z M1515.26,433.54l7.44,13.94l-3.39,1.83l-12.78-15.83L1515.26,433.54z M1523.2,448.41l9.04,16.93l-12.26-15.2
			L1523.2,448.41z M1544.78,436.8l1.96-1.05c0.38,0.53,0.91,0.93,1.52,1.23l-11,26.6L1544.78,436.8z M1461.84,333.47l-22.55,10.95
			c-0.55-0.86-1.42-1.52-2.5-1.77c-0.1-0.02-0.2,0.01-0.3-0.01l4.12-45.87c0.53,0.01,1.02-0.07,1.5-0.25L1461.84,333.47z
			 M1293.79,263.77l-6.18-27.09c0.6-0.21,1.12-0.53,1.56-0.98l32.06,24.36L1293.79,263.77z M1033.76,225.94l-9.31,43.35
			l-39.76-23.33l46.97-21.67C1032.11,225.05,1032.86,225.62,1033.76,225.94z M853.13,173.89l-32.71,43.8l-35.41-23.93l67.15-21.18
			C852.4,173.08,852.71,173.52,853.13,173.89z M363.37,376.06c-0.29-0.06-0.56-0.02-0.84-0.02l-21.53-190.76
			c0.97-0.24,1.83-0.81,2.39-1.65l86.84,43.86l-66.61,148.68C363.53,376.15,363.47,376.09,363.37,376.06z M1552.87,430.7
			c-0.41-0.43-0.9-0.77-1.49-1l38.79-154.35c0.8,0.1,1.56-0.03,2.25-0.36l52.39,87.65L1552.87,430.7z M1545.91,428.94l-0.2,0.7
			l-52.83-40.21l-29.68-55.61l6.39-3.1L1545.91,428.94z M1462.76,333.02l-18.89-35.38l25.13,32.34L1462.76,333.02z M1436.77,292.05
			c-0.18,0.95,0,1.88,0.43,2.67l-35.32,24.4l-72.14-57.16c0.13-0.21,0.22-0.46,0.32-0.7L1436.77,292.05z M1322.42,259.74
			l-25.83-19.63l26.36,17.69c-0.2,0.34-0.41,0.69-0.5,1.1C1322.37,259.18,1322.42,259.46,1322.42,259.74z M1285.42,236.87
			c0.47,0.11,0.93,0.09,1.39,0.03l6.15,26.98l-25.27,3.41l17.12-30.71C1285.02,236.67,1285.19,236.81,1285.42,236.87z
			 M1293.15,264.73l5.07,22.24l-45.78,45.23l-15.31-10.11l30.03-53.85L1293.15,264.73z M1236.36,321.58l-59.55-39.32
			c0.14-0.29,0.32-0.55,0.39-0.87c0.08-0.34,0.04-0.67,0.03-1.01l88.8-11.99L1236.36,321.58z M1171.28,283.93l-26.17,59.93
			l-78.8-48.92l-7.51-17.84l110.51,3.65C1169.39,282.09,1170.12,283.26,1171.28,283.93z M1064.73,293.96l-26.46-16.43
			c0.11-0.24,0.27-0.46,0.33-0.73c0.03-0.13-0.01-0.25,0.01-0.38l19,0.63L1064.73,293.96z M1038.63,275.63
			c-0.12-1.73-1.28-3.26-3.06-3.67c-0.21-0.05-0.41,0-0.62-0.01l0.37-45.78c0.28-0.01,0.55-0.04,0.82-0.12l21.13,50.2
			L1038.63,275.63z M1031.33,223.45l-47.58,21.95l-23.02-13.51l70.49-8.74C1031.24,223.26,1031.3,223.35,1031.33,223.45z
			 M982.59,245.94l-31.24,14.41l-75.02-13.56l-1.14-4.3l83.83-10.39L982.59,245.94z M874.95,241.57l-17.81-66.96
			c0.7-0.26,1.33-0.66,1.79-1.25l98.76,57.96L874.95,241.57z M606.47,134.92l-77.1,29.61l-6.59-139.29
			c0.52-0.09,1.01-0.29,1.46-0.57l83.34,106.42c-0.54,0.53-1,1.15-1.18,1.94C606.25,133.68,606.31,134.32,606.47,134.92z
			 M521.18,25.2c0.2,0.04,0.39,0,0.59,0.01l6.61,139.7l-80.74,31.01c-0.34-0.64-0.84-1.17-1.48-1.55l74.78-169.27
			C521.02,25.11,521.09,25.18,521.18,25.2z M337.03,183.97L217.99,313.15c-0.42-0.31-0.91-0.54-1.45-0.66
			c-0.46-0.1-0.91-0.08-1.35-0.04l-18.19-92.34c1.36-0.4,2.49-1.44,2.84-2.91c0.11-0.49,0.1-0.97,0.04-1.44l136.43-33.01
			C336.49,183.2,336.72,183.6,337.03,183.97z M218.66,313.85l119.04-129.17c0.42,0.3,0.91,0.53,1.45,0.66
			c0.29,0.06,0.56,0.01,0.85,0.02l21.52,190.75c-1.06,0.26-1.95,0.95-2.5,1.91l-139.57-60.43c0.03-0.1,0.1-0.17,0.12-0.27
			C219.87,316.03,219.45,314.79,218.66,313.85z M364.55,376.6l66.59-148.64l69.64,35.17c-0.05,0.15-0.16,0.27-0.2,0.44
			c-0.25,1.09-0.03,2.18,0.52,3.06L365.22,377.14C365.01,376.94,364.8,376.75,364.55,376.6z M508.46,265.38
			c0.1-0.43,0.07-0.85,0.04-1.27l25.6-5.18l11.39,161.59l-39.53-152.34C507.15,267.7,508.14,266.74,508.46,265.38z M547.29,421.83
			c-0.22-0.05-0.44,0-0.66-0.02l-11.5-163.1l117.76-23.82c0.41,1.31,1.43,2.4,2.87,2.73c0.71,0.17,1.4,0.07,2.06-0.13l49.89,120.27
			c-0.99,0.53-1.77,1.43-2.04,2.61c-0.15,0.66-0.08,1.31,0.08,1.93L549.9,423.88C549.37,422.89,548.47,422.11,547.29,421.83z
			 M995.2,426.66l110.9-1.08c0.17,1.67,1.34,3.12,3.06,3.53l-11.72,77.07c-1.21-0.09-2.33,0.36-3.14,1.19l-99.69-78.87
			c0.24-0.38,0.46-0.78,0.57-1.25C995.23,427.04,995.18,426.86,995.2,426.66z M1100.01,507.38l51.48-62.38l118.58,55.25
			c-0.04,0.12-0.12,0.21-0.15,0.33c-0.05,0.21-0.01,0.42-0.02,0.63l-168.76,8.25C1101,508.65,1100.57,507.96,1100.01,507.38z
			 M1277.52,499.98l67.05-36.28l19.44,65.21c-0.93,0.4-1.66,1.11-2.08,2.08l-84.17-28.52c0-0.02,0.02-0.04,0.03-0.06
			C1277.98,501.55,1277.83,500.72,1277.52,499.98z M1405.88,432.87c0.01-0.08,0-0.16,0.01-0.23l99.52,0.83l13.12,16.26l-18.02,9.69
			L1405.88,432.87z M1519.2,450.56l13.04,16.16c-0.38,0.38-0.67,0.83-0.87,1.34l-29.39-8.24L1519.2,450.56z M1536.77,465.95
			l11.9-28.78c0.14,0.05,0.25,0.15,0.4,0.18c2.17,0.5,4.34-0.85,4.84-3.02c0.03-0.14-0.01-0.28,0.01-0.41l19.83-0.04l-36.12,32.61
			C1537.38,466.26,1537.08,466.1,1536.77,465.95z M1553.95,432.9c-0.06-0.45-0.22-0.87-0.42-1.28l73.73-46.06l-52.38,47.29
			L1553.95,432.9z M1654.09,371.14l56.53-2.49l34.95,61.03c-0.33,0.23-0.63,0.5-0.89,0.83l-91.01-57.86
			c0.15-0.29,0.33-0.57,0.41-0.9C1654.12,371.54,1654.07,371.35,1654.09,371.14z M1842.83,363.55l21.6,0.49l-109.24,64.1
			L1842.83,363.55z M1843.69,362.92l5.15-3.8l36.28-7.84c0.05,0.18,0.12,0.35,0.2,0.51l-19.81,11.63L1843.69,362.92z
			 M1885.75,352.57c0.55,0.74,1.32,1.32,2.28,1.54c1.87,0.43,3.67-0.56,4.47-2.21l28.78,11.9c-0.05,0.14-0.14,0.25-0.18,0.4
			c-0.04,0.17,0,0.32-0.01,0.49l-53.9-1.23L1885.75,352.57z M1632.34,382.38l13.52-8.45l-68.7,58.91h-0.71L1632.34,382.38z
			 M1921.48,363.39l-28.78-11.9c0.05-0.14,0.14-0.25,0.18-0.4c0.5-2.17-0.85-4.34-3.02-4.84c-0.13-0.03-0.25,0.01-0.38-0.01
			l1.25-14.73c0.98,0.03,1.89-0.26,2.62-0.85l28.84,31.69C1921.91,362.65,1921.67,363,1921.48,363.39z M1887.3,329.3l-29.72,17.26
			l-159.34-15.77l188.66-2.67C1886.95,328.54,1887.11,328.92,1887.3,329.3z M1685.66,332.4l-40.26,29.8l-52.35-87.57
			c0.34-0.24,0.66-0.51,0.91-0.85l91.62,54.9c-0.13,0.27-0.3,0.51-0.37,0.81C1684.96,330.53,1685.17,331.55,1685.66,332.4z
			 M1586.94,272.71l-117.07,56.85l-26.37-33.94c0.53-0.52,0.97-1.13,1.15-1.91c0.08-0.35,0.04-0.69,0.03-1.04l142.14-20.28
			C1586.85,272.5,1586.91,272.6,1586.94,272.71z M1330.32,260.56c0.4-2.12-0.91-4.2-3.03-4.69c-1.6-0.37-3.18,0.27-4.11,1.49
			l-33.24-22.31l-0.17-0.13c0.03-0.05,0.04-0.11,0.07-0.16l142.14,55.13L1330.32,260.56z M1283.98,236.21l-17.43,31.24l-89.4,12.07
			c-0.02-0.08-0.06-0.15-0.09-0.22l105.75-44.48C1283.09,235.35,1283.47,235.85,1283.98,236.21z M1169.32,279.94l-110.87-3.66
			l-21.31-50.62c0.61-0.36,1.08-0.9,1.44-1.54l130.87,55.2c-0.03,0.09-0.09,0.15-0.11,0.24
			C1169.3,279.7,1169.34,279.82,1169.32,279.94z M1031.13,222.21l-71.74,8.9l-99.93-58.65l171.69,49.12
			C1031.12,221.79,1031.13,222,1031.13,222.21z M851.93,169.75l-137.61-25.54c0.14-1.91-1.03-3.68-2.92-4.18L732.56,8
			c0.77,0.04,1.5-0.1,2.15-0.45l118.3,160.48C852.52,168.5,852.13,169.07,851.93,169.75z M729.73,6.58L612.74,130.71
			c-0.43-0.32-0.93-0.57-1.49-0.7c-1.09-0.25-2.18-0.03-3.06,0.52L524.84,24.11c0.55-0.53,1-1.15,1.18-1.94
			c0.05-0.23,0.01-0.47,0.02-0.7L728.86,4.89C729,5.53,729.31,6.09,729.73,6.58z M520.03,24.68l-74.78,169.27
			c-0.09-0.03-0.15-0.09-0.24-0.11c-1.21-0.28-2.39,0.05-3.31,0.75l-92.32-99.17c0.43-0.48,0.78-1.04,0.93-1.71
			c0.15-0.67,0.08-1.32-0.09-1.95l168.35-68.55C518.93,23.83,519.42,24.31,520.03,24.68z M345.48,96.74c0.1,0.02,0.21,0,0.31,0.01
			l-5.77,80.69c-1.82,0.02-3.48,1.2-3.9,3.05c-0.11,0.49-0.1,0.98-0.04,1.44l-136.44,33.01c-0.1-0.28-0.16-0.57-0.32-0.82
			L343.66,95.7C344.17,96.17,344.75,96.57,345.48,96.74z M78.29,342.79l133.54-25.22c0.41,1.34,1.44,2.46,2.9,2.79
			c0.09,0.02,0.17-0.01,0.25,0.01l-8.13,115.34c-1.1,0.03-2.1,0.49-2.83,1.28l-126.24-91.9c0.19-0.33,0.39-0.66,0.48-1.06
			C78.35,343.61,78.32,343.2,78.29,342.79z M207.85,435.74c-0.09-0.02-0.17,0.01-0.25-0.01l8.12-115.35
			c1.41-0.04,2.66-0.78,3.36-1.99l139.56,60.43c-0.03,0.1-0.1,0.17-0.12,0.27c-0.15,0.65-0.09,1.29,0.07,1.9l-148.12,56.83
			C209.96,436.82,209.05,436.01,207.85,435.74z M365.88,377.84l135.89-110.51c0.51,0.5,1.1,0.91,1.85,1.08
			c0.5,0.12,1,0.11,1.47,0.04l39.86,153.62c-1.03,0.4-1.85,1.19-2.27,2.27l-176.26-43.87C366.53,379.53,366.36,378.61,365.88,377.84
			z M550.24,424.75l155.85-61.57c0.53,0.99,1.43,1.77,2.61,2.05c0.06,0.01,0.1-0.01,0.16,0.01l-11.77,173.84
			c-1,0.06-1.9,0.47-2.59,1.16L549.8,427.8c0.21-0.35,0.41-0.7,0.51-1.12C550.47,426.01,550.4,425.37,550.24,424.75z M698.2,539.1
			c-0.06-0.01-0.11,0.01-0.16,0l11.77-173.84c0.33-0.01,0.64-0.07,0.95-0.17l65.88,150.42c-0.93,0.54-1.65,1.43-1.91,2.56
			c-0.14,0.6-0.11,1.18,0.01,1.74L701,541.62C700.53,540.41,699.56,539.41,698.2,539.1z M781.73,516.45l102.31-104.56
			c0.46,0.36,0.97,0.64,1.58,0.78c0.43,0.1,0.85,0.07,1.27,0.04l38.26,176.21c-0.84,0.3-1.56,0.82-2.05,1.57l-140.7-70.15
			c0.06-0.16,0.16-0.28,0.2-0.45C782.89,518.62,782.5,517.39,781.73,516.45z M929.84,590.48c-0.37-0.57-0.9-0.99-1.51-1.31
			l61.91-158.95c0.03,0.01,0.06,0.04,0.1,0.04c1.43,0.33,2.81-0.2,3.76-1.17l99.68,78.87c-0.24,0.38-0.46,0.79-0.57,1.25
			c-0.18,0.76-0.06,1.49,0.18,2.18L929.84,590.48z M1101.11,510.4l168.76-8.25c0.24,1.41,1.24,2.57,2.64,3.07l-24.22,91.74
			c-1.51-0.26-2.97,0.33-3.87,1.48l-143.65-86.69c0.11-0.24,0.27-0.45,0.33-0.72C1101.14,510.82,1101.09,510.62,1101.11,510.4z
			 M1250.83,598.57c-0.46-0.64-1.12-1.12-1.9-1.4l24.22-91.73c1.85,0.32,3.59-0.69,4.32-2.36l84.17,28.52
			c-0.01,0.03-0.02,0.04-0.03,0.07c-0.21,0.9-0.04,1.76,0.32,2.54L1250.83,598.57z M1500.94,460.37l30.16,8.46
			c-0.09,0.56-0.07,1.1,0.06,1.63l-158.92,59.11L1500.94,460.37z M1575.33,433.86h0.65l-12.96,11.11L1575.33,433.86z
			 M1647.41,373.73c0.51,0.48,1.09,0.87,1.81,1.05c1.59,0.36,3.16-0.27,4.09-1.48l91.02,57.86c-0.15,0.29-0.33,0.57-0.41,0.9
			c-0.03,0.14,0.01,0.27-0.01,0.41l-165.43,0.37L1647.41,373.73z M1866.13,364.08l54.95,1.26c0.02,0.24,0.03,0.48,0.09,0.72
			l-168.18,64.41L1866.13,364.08z"/>
		<path class="st0" d="M1743.39,342.16c1.25,0.28,2.46-0.09,3.4-0.83l28.84,31.69c-0.5,0.51-0.91,1.11-1.09,1.86
			c-0.5,2.17,0.85,4.34,3.03,4.84c2.17,0.5,4.34-0.85,4.85-3.03c0.03-0.15-0.01-0.3,0.01-0.45l193.81-2.74
			c0.23,1.6,1.39,2.98,3.07,3.37c1.63,0.37,3.25-0.29,4.17-1.56l91.62,54.9c-0.12,0.26-0.3,0.51-0.37,0.81
			c-0.5,2.17,0.86,4.34,3.03,4.84c2.18,0.5,4.35-0.86,4.85-3.03c0.08-0.35,0.04-0.7,0.03-1.05l142.14-20.28
			c0.36,1.42,1.44,2.61,2.96,2.96c1.83,0.42,3.58-0.51,4.42-2.09l146.99,57c-0.01,0.05-0.04,0.08-0.05,0.12
			c-0.5,2.17,0.85,4.35,3.03,4.84c2.17,0.51,4.35-0.85,4.85-3.03c0.17-0.73,0.07-1.44-0.14-2.1l105.75-44.47
			c0.53,1,1.44,1.78,2.62,2.05c1.79,0.41,3.53-0.48,4.38-2.01l130.87,55.2c-0.02,0.1-0.09,0.16-0.11,0.25
			c-0.5,2.17,0.85,4.34,3.03,4.84c1.94,0.45,3.8-0.62,4.56-2.39l171.74,49.14c-0.32,2.07,0.96,4.08,3.04,4.56
			c1.01,0.23,2,0.03,2.84-0.43l118.3,160.49c-0.55,0.52-1.01,1.15-1.19,1.94c-0.5,2.17,0.86,4.35,3.03,4.84
			c2.18,0.51,4.35-0.85,4.85-3.03c0.05-0.23,0-0.47,0.02-0.69l202.81-16.58c0.32,1.47,1.44,2.72,3.01,3.09
			c2.18,0.5,4.35-0.86,4.84-3.03c0.16-0.67,0.09-1.33-0.09-1.94l168.36-68.55c0.54,0.97,1.43,1.72,2.59,1.98
			c2.18,0.5,4.34-0.86,4.84-3.03c0.25-1.09,0.03-2.19-0.53-3.07l144.35-118.43c0.5,0.49,1.08,0.88,1.82,1.05
			c2.17,0.5,4.34-0.86,4.84-3.03c0.08-0.36,0.04-0.7,0.03-1.05l184.09-30.22c0.4,1.35,1.44,2.46,2.9,2.8
			c2.18,0.5,4.35-0.85,4.84-3.03c0.51-2.18-0.85-4.35-3.03-4.84c-1.06-0.24-2.12-0.04-3,0.49l-65.55-88.94
			c0.61-0.54,1.1-1.2,1.3-2.05c0.5-2.18-0.86-4.35-3.03-4.84c-1.46-0.34-2.89,0.21-3.84,1.25l-126.24-91.9
			c0.19-0.33,0.39-0.66,0.48-1.05c0.5-2.18-0.86-4.35-3.03-4.85c-2.18-0.5-4.35,0.86-4.84,3.04c-0.16,0.65-0.09,1.29,0.07,1.9
			l-148.12,56.83c-0.53-1.01-1.44-1.81-2.64-2.09c-1.97-0.46-3.89,0.66-4.6,2.51l-176.27-43.87c0.24-2.02-1.01-3.95-3.04-4.41
			c-1.41-0.32-2.76,0.19-3.71,1.13l-144.69-112.42c0.21-0.35,0.41-0.71,0.51-1.13c0.51-2.17-0.85-4.34-3.03-4.84
			c-2.18-0.5-4.34,0.86-4.84,3.03c-0.14,0.61-0.11,1.19,0.01,1.75l-73.74,21.81c-0.47-1.21-1.44-2.21-2.79-2.52
			c-1.7-0.39-3.38,0.37-4.27,1.76l-140.71-70.16c0.06-0.16,0.16-0.28,0.2-0.45c0.5-2.17-0.85-4.34-3.03-4.84
			c-2.17-0.5-4.34,0.86-4.84,3.03c-0.18,0.76-0.06,1.49,0.18,2.18l-163.55,79.09c-0.55-0.86-1.41-1.51-2.48-1.76
			c-1.58-0.36-3.15,0.27-4.08,1.47l-143.66-86.69c0.11-0.24,0.27-0.45,0.33-0.71c0.5-2.18-0.85-4.35-3.03-4.85
			c-2.17-0.5-4.34,0.86-4.84,3.03c-0.21,0.9-0.04,1.77,0.31,2.55l-111.11,64.36c-0.55-0.76-1.34-1.37-2.33-1.59
			c-2.17-0.51-4.34,0.85-4.85,3.03c-0.15,0.64-0.1,1.25,0.05,1.85l-162.05,60.27c-0.53-1.02-1.43-1.83-2.64-2.11
			c-2.17-0.5-4.34,0.86-4.85,3.03c-0.27,1.15,0.02,2.29,0.63,3.18l-38.94,33.39l-166.59,0.38c-0.21-1.63-1.37-3.04-3.07-3.43
			c-2.17-0.5-4.34,0.86-4.85,3.03c-0.15,0.64-0.09,1.27,0.06,1.88l-169.78,65.01c-0.53-1-1.43-1.78-2.62-2.05
			c-2.17-0.51-4.34,0.85-4.84,3.03C1739.86,339.48,1741.22,341.65,1743.39,342.16z M3661.34,455.69l-184.09,30.23
			c-0.16-0.52-0.4-0.98-0.74-1.4l116.09-121.1c0.44,0.33,0.95,0.59,1.52,0.72c1.06,0.24,2.12,0.04,2.99-0.49l65.56,88.94
			c-0.61,0.54-1.1,1.2-1.3,2.05C3661.29,455,3661.33,455.35,3661.34,455.69z M2300.55,173.1c0.35,0.5,0.83,0.87,1.37,1.16
			l-35.13,92.9c-1.38,0.22-2.53,1.18-3.06,2.53l-93.86-26.33L2300.55,173.1z M2741.98,114.6c0.43,0.1,0.85,0.08,1.27,0.04
			l38.25,176.21c-1.23,0.43-2.23,1.39-2.58,2.73l-96.86-16.27c0.12-1.6-0.69-3.07-2.08-3.82l61.91-158.94
			C2741.92,114.57,2741.95,114.59,2741.98,114.6z M2889.77,188.29c0.72,0.17,1.42,0.07,2.08-0.14l65.87,150.42
			c-0.75,0.44-1.31,1.14-1.65,1.98l-169.3-45.41c0.16-1.14-0.18-2.23-0.88-3.08l102.31-104.56
			C2888.66,187.87,2889.18,188.15,2889.77,188.29z M3591.96,362.73l-116.09,121.11c-0.44-0.33-0.95-0.6-1.51-0.73
			c-0.46-0.11-0.91-0.09-1.35-0.03l-18.18-92.34c1.36-0.4,2.49-1.45,2.83-2.92c0.1-0.42,0.07-0.84,0.04-1.24l133.54-25.22
			C3591.37,361.86,3591.63,362.32,3591.96,362.73z M3320.56,607.34l-92.31-99.17c0.41-0.47,0.75-1.02,0.91-1.66l96.18,15.14
			c-0.13,1.94,1.09,3.76,3.05,4.22c0.11,0.02,0.2-0.01,0.31,0l-5.77,80.69C3322.06,606.57,3321.24,606.83,3320.56,607.34z
			 M2937.61,695.41l21.15-132.03c1.92,0.11,3.71-1.1,4.16-3.05c0.01-0.06-0.01-0.12,0-0.18l92.13,9.18c-0.01,0.98,0.3,1.87,0.91,2.6
			l-116.98,124.11C2938.58,695.75,2938.11,695.53,2937.61,695.41z M2817.54,532.74c0.03-0.34,0.08-0.68,0.03-1.01l67.89-21.42
			l70,47.29c-0.11,0.22-0.23,0.43-0.3,0.67L2817.54,532.74z M2082.06,429.75c-0.43-0.66-1.09-1.14-1.84-1.47l42.91-152.76
			l75.77,97.5L2082.06,429.75z M1977.91,369.65c-0.68,0.48-1.18,1.16-1.46,1.98l-133.11-30.74c0.01-0.06,0-0.12,0.01-0.19
			l115.09-5.06L1977.91,369.65z M1843.37,339.74c-0.1-0.61-0.36-1.16-0.72-1.66l76.06-64.89c0.51,0.51,1.12,0.94,1.87,1.1
			c0.9,0.21,1.78,0.04,2.56-0.32l34.77,60.74L1843.37,339.74z M1842.17,337.58c-0.51-0.52-1.12-0.94-1.87-1.11
			c-2.17-0.5-4.34,0.86-4.84,3.03c-0.04,0.17,0,0.33-0.02,0.49l-7.38-0.17l84.42-62.23L1842.17,337.58z M1835.42,340.63
			c0.01,0.12-0.03,0.24-0.01,0.36l-12.65,2.73l4.44-3.28L1835.42,340.63z M2016.63,335.53c0.48,0.41,1.02,0.74,1.67,0.89
			c0.51,0.12,1.01,0.12,1.5,0.04l-31.54,28.48L2016.63,335.53z M2023.11,333.48c0.01-0.03,0.03-0.06,0.04-0.09
			c0.22-0.96,0.03-1.89-0.38-2.7l11.12-6.95L2023.11,333.48z M2016.28,335.15l-33.49,34.73c-0.48-0.41-1.02-0.74-1.68-0.89
			c-0.9-0.21-1.77-0.04-2.55,0.31l-19.3-33.7l55.97-2.46C2015.36,333.91,2015.76,334.59,2016.28,335.15z M1784.38,352.56l35.09-7.58
			l-13.78,10.16l-21.32-2.11C1784.37,352.87,1784.41,352.71,1784.38,352.56z M1784.34,354.06c0-0.01,0-0.01,0-0.01l20.11,1.99
			l-23.09,17.02c-0.54-0.57-1.17-1.04-1.98-1.22c-0.13-0.03-0.25,0-0.37-0.01l1.26-14.73
			C1782.16,357.17,1783.9,355.97,1784.34,354.06z M1805.86,356.18l4.95,0.49l-26.49,15.39L1805.86,356.18z M1807.09,355.27
			l14.62-10.78l13.85-2.99c0.06,0.22,0.15,0.44,0.25,0.64l-23.49,13.64L1807.09,355.27z M1836.07,342.65
			c0.55,0.81,1.38,1.45,2.41,1.69c2.03,0.47,4-0.72,4.67-2.65l129.93,30.01l-159.8-15.82L1836.07,342.65z M2021.24,336.59l2.24,3.73
			l-35.37,26.18L2021.24,336.59z M2021.79,336.09l17.18-15.52l71.65-44.76l-86.56,64.07L2021.79,336.09z M2392.19,204.1
			c0.39,0.58,0.95,1,1.6,1.31l-32.5,89.5l-21.7-5.62l-14.56-48.85L2392.19,204.1z M2778.86,294.27c-0.07,0.95,0.14,1.85,0.66,2.59
			l-50.89,45.64l-47.77-62.65c0.52-0.5,0.94-1.1,1.14-1.85L2778.86,294.27z M2955.8,341.48c-0.07,0.55-0.04,1.06,0.09,1.56
			L2832,392.48l-46.97-94.53c0.66-0.44,1.15-1.1,1.46-1.88L2955.8,341.48z M3325.56,520.57c-0.06,0.14-0.15,0.24-0.18,0.39
			l-96.19-15.15c0.11-1.5-0.61-2.9-1.86-3.67l11.4-25.43L3325.56,520.57z M2814.5,528.5c-0.27-0.07-0.52-0.01-0.78-0.03l-2.57-65.25
			c1.01-0.11,1.91-0.61,2.57-1.36l34.68,23.43l-32.69,43.76C2815.35,528.83,2814.95,528.6,2814.5,528.5z M2727.95,343.11
			l-78.66,70.55l28.51-132.7c0.84,0.06,1.67-0.09,2.37-0.5L2727.95,343.11z M2862.78,459.84l-29.87-17.41l16.41-12.91l14.55,29.28
			C2863.44,459.07,2863.07,459.42,2862.78,459.84z M2862.51,460.45c-0.13,0.26-0.29,0.5-0.36,0.79c-0.01,0.05,0.01,0.1,0,0.15
			l-47.46-2.44c-0.05-0.63-0.2-1.24-0.52-1.78l18.19-14.3L2862.51,460.45z M2813.5,456.43c-0.51-0.52-1.12-0.94-1.88-1.11
			c-0.38-0.09-0.75-0.06-1.12-0.04l-4.73-27.91l25.66,14.96L2813.5,456.43z M2785.7,412.02l15.51-6.18l3.4,20.09l-19.2-11.19
			c0.13-0.26,0.3-0.5,0.36-0.8C2785.92,413.28,2785.86,412.63,2785.7,412.02z M2785.34,411.09c-0.54-0.97-1.44-1.74-2.6-2
			c-0.17-0.04-0.34,0-0.51-0.01l0.92-109.83l17.89,105.59L2785.34,411.09z M2785.14,415.34l19.62,11.44l4.85,28.65
			c-0.27,0.09-0.54,0.17-0.79,0.3l-24.65-39.45C2784.53,416.01,2784.87,415.71,2785.14,415.34z M2870.03,462.82l138.69,7.13
			c0.01,0.13-0.03,0.27-0.01,0.4l-103.17,32.54l-36.43-38.14c0.42-0.49,0.76-1.04,0.91-1.69
			C2870.04,462.98,2870.02,462.9,2870.03,462.82z M2866.99,458.21c-0.77-0.18-1.52-0.05-2.22,0.2l-14.67-29.5l106.85-84.04
			c0.01,0.01,0.01,0.02,0.03,0.03l-88.8,113.87C2867.82,458.53,2867.44,458.32,2866.99,458.21z M2956.3,344.13L2849.65,428
			l-17.21-34.63l123.8-49.38C2956.27,344.02,2956.28,344.08,2956.3,344.13z M2848.87,428.62l-16.89,13.27l-26.36-15.37l-3.56-21.04
			l29.48-11.76L2848.87,428.62z M2801.9,404.49l-17.97-106.07c0.07-0.03,0.14-0.06,0.21-0.09l46.96,94.51L2801.9,404.49z
			 M2781.91,298.52c0.17,0.04,0.34,0,0.51,0.02l-0.92,110.52c-0.62,0.05-1.21,0.2-1.73,0.51l-50.52-66.26l50.96-45.7
			C2780.7,298.02,2781.25,298.37,2781.91,298.52z M2779.08,410.17c-0.54,0.53-1,1.15-1.18,1.94c-0.07,0.3-0.02,0.59-0.02,0.88
			l-131.21,12.84l2.25-10.49l79.65-71.43L2779.08,410.17z M2647.95,414.85l-10.65,9.56c-0.32-0.27-0.69-0.48-1.1-0.64l38.48-133.35
			L2647.95,414.85z M2638.64,427.66c0-0.07,0-0.13,0-0.2l6.73-0.65l-0.43,2L2638.64,427.66z M2638.63,426.63
			c-0.11-0.54-0.33-1.02-0.64-1.47l9.6-8.6l-2.02,9.39L2638.63,426.63z M2627.38,413.96l-72.49-124.64l2.32-5.31l4.41-0.24
			L2627.38,413.96z M2341.04,437.88l-35.16-80.2l41.33-28.55c0.54,0.62,1.23,1.14,2.1,1.35c0.1,0.02,0.19-0.01,0.3,0.01l-6.74,108.8
			L2341.04,437.88z M2236.9,358.74c0.2-0.34,0.4-0.68,0.5-1.08c0.12-0.53,0.12-1.05,0.04-1.56l6.37-1.64l-2.19,7.87L2236.9,358.74z
			 M2268.55,274.96l28.47,64.95l-52.06,13.48l21.79-78.3C2267.38,275.19,2267.98,275.12,2268.55,274.96z M2346.71,328.44
			l-41.17,28.44l-7.25-16.53l48.2-12.47C2346.56,328.07,2346.61,328.27,2346.71,328.44z M2346.74,324.61
			c-0.18,0.32-0.37,0.63-0.46,1.02c-0.12,0.53-0.12,1.05-0.04,1.55l-48.25,12.49l-28.52-65.06c0.42-0.24,0.78-0.58,1.08-0.96
			L2346.74,324.61z M2244.04,353.62l-6.84,1.78c-0.34-0.93-0.97-1.68-1.86-2.16l2.72-7.18l27.12-68.37L2244.04,353.62z
			 M2244.74,354.21l52.59-13.6l7.38,16.86l-36.41,25.15l-25.98-19.75L2244.74,354.21z M2305.06,358.24l34.38,78.42l-70.42-53.52
			L2305.06,358.24z M2422.34,311.78l39.26,10.17c-0.01,0.09,0,0.18,0,0.26l-106.3,3.77L2422.34,311.78z M2547.5,285.28
			L2547.5,285.28l-50.42,22.64l45.91-21.69L2547.5,285.28z M2553.62,287.16c0.74-0.56,1.33-1.32,1.55-2.29
			c0.06-0.25,0.01-0.49,0.02-0.74l1.03-0.06l-1.89,4.33L2553.62,287.16z M2556.57,283.28l-1.36,0.07c-0.09-0.58-0.3-1.11-0.61-1.6
			l1.56-1.12c0.31,0.4,0.69,0.72,1.14,0.99L2556.57,283.28z M2555.81,280.17c0.03,0.07,0.07,0.13,0.1,0.2l-1.56,1.11
			c-0.12-0.15-0.26-0.29-0.4-0.43L2555.81,280.17z M2547.27,284.26l-0.2,0.04l0.2-0.1C2547.27,284.23,2547.27,284.25,2547.27,284.26
			z M2540.08,286.85l-71.06,33.56c-0.16-0.27-0.39-0.5-0.62-0.73l17.66-21.4L2540.08,286.85z M2467.73,319.08
			c-0.39-0.25-0.8-0.47-1.27-0.58c-0.9-0.2-1.77-0.04-2.54,0.31l-8.19-14.1l28.92-6.12L2467.73,319.08z M2463.2,319.21
			c-0.59,0.43-1.04,1.04-1.33,1.75l-37.27-9.65l30.28-6.42L2463.2,319.21z M2469.15,324.08c0.11-0.24,0.27-0.46,0.33-0.73
			c0.18-0.78,0.06-1.53-0.19-2.24l78.45-35.22c0.37,0.68,0.95,1.21,1.66,1.58l-27.53,69.33L2469.15,324.08z M2557.55,283.22
			l0.55-1.25c0.1,0.03,0.18,0.1,0.28,0.13c0.8,0.19,1.57,0.05,2.28-0.21l0.58,1.14L2557.55,283.22z M2555.56,279.54l-2.2,1.04
			c-0.28-0.18-0.59-0.31-0.92-0.42l0.97-4.2l2.08,0.97c-0.04,0.12-0.12,0.21-0.15,0.32C2555.16,278.04,2555.3,278.82,2555.56,279.54
			z M2547.29,283.44l-3.12,1.47L2487.12,297l26.64-32.28l33.77,17.81c-0.07,0.18-0.19,0.32-0.23,0.51
			C2547.27,283.18,2547.31,283.31,2547.29,283.44z M2420.08,311.2l-66.12,14c-0.35-0.99-1.05-1.78-2.02-2.25l9.76-26.87
			L2420.08,311.2z M2351.22,322.63c-0.03-0.01-0.06-0.04-0.09-0.04c-0.55-0.13-1.11-0.14-1.63-0.04l-9.57-32.1l21,5.44
			L2351.22,322.63z M2348.67,322.88c-0.61,0.26-1.16,0.62-1.58,1.15l-76.19-50.97c0.08-0.14,0.13-0.28,0.2-0.43l67.83,17.56
			L2348.67,322.88z M2236.3,359.52l0.23,0.18l4.76,3.77l-12,43.12c-0.01-0.01-0.03,0-0.05,0l4.12-45.88
			C2234.5,360.73,2235.54,360.3,2236.3,359.52z M2497,418.91c-0.6-0.14-1.18-0.12-1.75,0.01l-28.23-92.8
			c0.63-0.25,1.19-0.62,1.63-1.15l52.83,32.79l-24.31,61.23C2497.1,418.97,2497.06,418.92,2497,418.91z M2638.34,428.97
			c0.05-0.13,0.12-0.24,0.17-0.37l6.25,1.13l-0.58,2.67L2638.34,428.97z M2814.24,461.06c0.15-0.29,0.33-0.57,0.41-0.9
			c0.02-0.07-0.01-0.13,0.01-0.2l47.46,2.44c0.07,1.07,0.55,2.04,1.34,2.73l-14.47,19.38L2814.24,461.06z M2906.34,503.74
			l102.74-32.41c0.29,0.62,0.67,1.19,1.24,1.59l-49.61,82.94c-0.27-0.13-0.52-0.3-0.82-0.37c-1.24-0.28-2.43,0.08-3.36,0.8
			L2906.34,503.74z M2961.34,556.15l49.61-82.95c0.27,0.14,0.52,0.3,0.82,0.38c0.79,0.18,1.55,0.05,2.26-0.21l24.4,52.56
			l-75.96,31.51C2962.18,556.94,2961.82,556.49,2961.34,556.15z M3059.92,565.45c-0.78-0.18-1.54-0.05-2.25,0.21l-18.16-39.09
			l80.82-33.54l-59.17,72.99C3060.79,565.77,3060.39,565.55,3059.92,565.45z M3122.1,492.29l12.04-5c0.11,0.19,0.24,0.34,0.38,0.5
			c0.04,0.07,0.08,0.13,0.12,0.19l-67.99,72.71L3122.1,492.29z M3139.4,481.76c-0.28-0.14-0.55-0.31-0.87-0.39
			c-0.22-0.05-0.44-0.01-0.66-0.02l-0.55-7.84l24.92-30.74L3139.4,481.76z M3136.82,481.37c-1.5,0.3-2.76,1.44-3.14,3.03
			c0,0.01,0,0.02,0,0.03l-4.74-0.6l7.39-9.12L3136.82,481.37z M3133.67,485.2c-0.02,0.4,0.01,0.78,0.11,1.16l-10.36,4.3l4.97-6.12
			L3133.67,485.2z M3222.35,502.83c-0.4,0.43-0.71,0.93-0.91,1.51l-73.61-17c0.3-2.06-0.98-4.04-3.04-4.52
			c-1.24-0.28-2.44,0.08-3.38,0.82c-0.09-0.15-0.22-0.25-0.33-0.38c-0.3-0.51-0.71-0.94-1.21-1.28l23.18-39.59
			c0.28,0.15,0.55,0.32,0.87,0.4c1.23,0.28,2.41-0.07,3.34-0.78L3222.35,502.83z M3127.32,484.4l-5.67,6.99l-82.56,34.26
			l-24.39-52.53c0.94-0.55,1.67-1.44,1.93-2.58c0-0.01-0.01-0.02,0-0.03L3127.32,484.4z M2676.6,280.66l-41.22,142.82
			c-0.72-0.12-1.41-0.01-2.06,0.23l-70.72-139.99l111.53-6.12C2674.33,278.97,2675.28,280.11,2676.6,280.66z M2485.7,297.3
			l-30.53,6.46l-57.33-98.69c0.37-0.27,0.71-0.58,0.97-0.96l114.13,60.18L2485.7,297.3z M2394.59,205.78
			c0.9,0.21,1.76,0.03,2.54-0.32l57.2,98.49l-31.99,6.78l-60.3-15.62l32.46-89.37C2394.53,205.74,2394.56,205.77,2394.59,205.78z
			 M2265.67,274.69l-13.53,34.1l12.99-34.35C2265.28,274.57,2265.49,274.62,2265.67,274.69z M2230.06,354.67
			c-0.22,0.36-0.43,0.73-0.53,1.17c-0.18,0.77-0.05,1.51,0.19,2.21l-22.65,11l-28.65-53.67L2230.06,354.67z M2230.09,406.83
			l11.92-42.81l24.78,19.64l-35.14,24.28C2231.23,407.45,2230.71,407.08,2230.09,406.83z M2340.24,438.5l0.68,1.56
			c-0.3,0.18-0.54,0.43-0.79,0.68l-71.79-56.88L2340.24,438.5z M2347.15,442.53l-0.44-0.34c-0.15-0.4-0.33-0.77-0.6-1.11
			l24.32-24.02l4.94,21.67L2347.15,442.53z M2345.48,440.4c-0.46-0.37-0.98-0.67-1.6-0.81c-0.1-0.03-0.2,0.01-0.3-0.01l6.76-109.08
			c0.12-0.01,0.24,0.02,0.36,0.01l19.49,85.49L2345.48,440.4z M2351.51,330.28c0.69-0.23,1.3-0.62,1.76-1.17l62.86,41.5
			l-45.24,44.69L2351.51,330.28z M2353.76,328.31c0.14-0.28,0.32-0.55,0.4-0.87c0.05-0.23,0-0.46,0.02-0.68l107.4-3.82
			c0.09,0.73,0.4,1.39,0.84,1.95l-45.61,45.05L2353.76,328.31z M2463.04,325.56c0.06,0.05,0.09,0.11,0.15,0.16l-30.51,54.7
			l-15.09-9.96L2463.04,325.56z M2464.03,326.1c0.21,0.09,0.38,0.22,0.61,0.27c0.6,0.14,1.18,0.11,1.75-0.01l28.22,92.8
			c-0.61,0.24-1.15,0.61-1.57,1.1l-59.58-39.35L2464.03,326.1z M2522.21,358.21l1.29,0.79l-17.65,40.42L2522.21,358.21z
			 M2522.59,357.25l27.57-69.43c0.06,0.01,0.1,0.06,0.17,0.07c0.67,0.16,1.33,0.09,1.95-0.08l1.14,2.7l-29.51,67.56L2522.59,357.25z
			 M2553.88,291.62l48.49,115.15l-77.71-48.23L2553.88,291.62z M2554.71,290.83l77.6,133.41c-0.27,0.2-0.51,0.41-0.72,0.67
			l-27.65-17.17L2554.71,290.83z M2637.86,429.9l6.1,3.57l-9.39,43.7c-0.01,0-0.02,0-0.03,0l0.37-45.78
			C2636.08,431.33,2637.15,430.81,2637.86,429.9z M2645.14,432.96l0.65-3.04l70.68,12.77l-30.64,14.15L2645.14,432.96z
			 M2645.99,428.99l0.49-2.29l131.41-12.86c0.03,0.16,0.12,0.28,0.17,0.44l-60.09,27.73L2645.99,428.99z M2778.38,415.1
			c0.55,0.91,1.44,1.6,2.54,1.86c0.53,0.13,1.07,0.13,1.57,0.05l10.24,38.52l-73.24-13.24L2778.38,415.1z M2783.21,416.75
			c0.18-0.07,0.36-0.11,0.52-0.2l24.66,39.45c-0.69,0.5-1.22,1.21-1.49,2.08l-13.33-2.41L2783.21,416.75z M2806.76,459.02
			c0,0.08,0,0.17,0,0.24l-11.84,1.46l-1.08-4.05L2806.76,459.02z M2806.83,460.21c0.35,1.43,1.44,2.62,2.97,2.98
			c0.26,0.06,0.52,0.01,0.77,0.02l2.57,65.25c-0.08,0.01-0.15-0.02-0.23-0.01l-17.76-66.8L2806.83,460.21z M2849.5,484.88
			l14.45-19.35c0.37,0.23,0.76,0.45,1.22,0.56c1.23,0.28,2.43-0.08,3.36-0.8l36.16,37.86l-19.2,6.05L2849.5,484.88z M2905.5,504
			l50.4,52.76l-69.3-46.81L2905.5,504z M2962.83,558.37l76.03-31.54l18.15,39.08c-0.94,0.54-1.67,1.44-1.93,2.57
			c-0.01,0.06,0.01,0.12,0,0.18l-92.13-9.17C2962.96,559.1,2962.93,558.73,2962.83,558.37z M3061.98,566.75l73.15-78.24
			c0.53,0.55,1.15,1,1.93,1.17c0.21,0.05,0.39,0,0.6,0.02l2.28,48.11l-77.39,29.73C3062.4,567.23,3062.19,566.99,3061.98,566.75z
			 M3138.67,489.72c0.66-0.12,1.25-0.45,1.78-0.86c0.55,0.89,1.43,1.57,2.53,1.83c2.06,0.48,4.07-0.75,4.71-2.73l73.62,17
			c-0.09,0.55-0.06,1.07,0.07,1.57l-80.45,30.89L3138.67,489.72z M3226.4,501.73c-0.09-0.03-0.16-0.1-0.24-0.12
			c-1.23-0.28-2.42,0.07-3.34,0.78l-55.09-60.81c0.15-0.17,0.31-0.31,0.44-0.5l69.64,35.18L3226.4,501.73z M3162,441.63
			l-24.78,30.56l-1.89-26.92l25.72-5.2C3161.24,440.66,3161.56,441.18,3162,441.63z M3136.26,473.39l-8.37,10.32l-111.24-13.96
			c0-0.16,0.03-0.32,0.01-0.48l117.63-23.8L3136.26,473.39z M3008.76,468.73c-0.02,0.07,0,0.13-0.01,0.2l-138.69-7.14
			c-0.09-0.96-0.53-1.82-1.21-2.48l88.8-113.87c0.37,0.22,0.75,0.44,1.2,0.54c0.71,0.17,1.4,0.08,2.05-0.12l49.89,120.26
			C3009.8,466.65,3009.02,467.56,3008.76,468.73z M2562.22,282.97l-0.73-1.45c0.84-0.55,1.49-1.4,1.73-2.45
			c0.05-0.2,0-0.39,0.02-0.59l98.18-0.96L2562.22,282.97z M2555.89,276.05l-2.25-1.05l17-73.6l-11.07,72.81
			C2558.06,274.1,2556.67,274.8,2555.89,276.05z M2570.99,197.01l-17.95,77.72l-34.33-16l51.3-62.17
			C2570.31,196.75,2570.64,196.89,2570.99,197.01z M2552.82,275.67l-1,4.35c-1.55-0.23-3.04,0.42-3.89,1.66l-33.55-17.7l3.71-4.49
			L2552.82,275.67z M2513.55,263.55l-100.83-53.16l104.52,48.7L2513.55,263.55z M2338.58,289.03l-67.21-17.4
			c0.08-0.7-0.02-1.37-0.28-1.99l53.14-28.76L2338.58,289.03z M2270.73,268.88c-0.4-0.59-0.98-1.02-1.64-1.33l31.09-85.81l2.67-7.06
			c0.01,0.01,0.02,0.02,0.03,0.02c0.55,0.13,1.1,0.13,1.63,0.03l19.48,65.33L2270.73,268.88z M2268.46,267.26
			c-0.05-0.01-0.08-0.04-0.13-0.06c-0.16-0.03-0.31,0.01-0.46-0.01l14.62-38.66L2268.46,267.26z M2264.34,273.66l-29.94,79.16
			c-0.01,0-0.02-0.01-0.03-0.01c-1.1-0.25-2.2-0.03-3.08,0.54l-66.66-82.64l98.82,0.82
			C2263.52,272.33,2263.84,273.04,2264.34,273.66z M2230.65,353.94c-0.03,0.03-0.05,0.05-0.08,0.08l-53.08-40.39l-22.95-43.01
			l8.96,0.08L2230.65,353.94z M2135.7,237.52l9.55,17.89l-19.41,10.43l7.89-28.09C2134.42,237.86,2135.08,237.75,2135.7,237.52z
			 M2145.75,256.33l7.17,13.44l-28.11-0.23l0.64-2.29L2145.75,256.33z M2123.73,269.53h-0.39c-0.03-0.36-0.14-0.68-0.26-1.01
			l1.09-0.6L2123.73,269.53z M2118.85,273.86c0.93,0.12,1.84-0.04,2.6-0.5l0.88,1.13l-34.65,123.38L2118.85,273.86z M2122.16,272.74
			c0.03-0.04,0.08-0.07,0.11-0.11l0.48,0.37l-0.1,0.36L2122.16,272.74z M2122.78,271.99c0.22-0.36,0.43-0.73,0.53-1.16
			c0.03-0.16-0.01-0.3,0.01-0.46h0.17l-0.5,1.79L2122.78,271.99z M2124.57,270.38l28.81,0.24l22.17,41.52l-51.66-39.32
			L2124.57,270.38z M2154.09,269.78l-7.44-13.94l3.39-1.83l12.78,15.84L2154.09,269.78z M2146.15,254.92l-9.04-16.93l12.26,15.21
			L2146.15,254.92z M2124.57,266.52l-1.96,1.05c-0.38-0.53-0.91-0.94-1.52-1.23l11-26.6L2124.57,266.52z M2207.51,369.86
			l22.55-10.96c0.55,0.87,1.42,1.52,2.49,1.78c0.1,0.02,0.2-0.01,0.3,0.01l-4.12,45.87c-0.53-0.01-1.02,0.07-1.5,0.25
			L2207.51,369.86z M2375.56,439.56l6.18,27.09c-0.6,0.21-1.12,0.53-1.56,0.98l-32.06-24.37L2375.56,439.56z M2635.59,477.39
			l9.31-43.35l39.76,23.33l-46.97,21.67C2637.24,478.28,2636.49,477.71,2635.59,477.39z M2816.22,529.44l32.71-43.8l35.41,23.93
			l-67.15,21.18C2816.95,530.25,2816.64,529.81,2816.22,529.44z M3305.97,327.26c0.29,0.07,0.57,0.02,0.85,0.02l21.52,190.76
			c-0.98,0.24-1.83,0.81-2.38,1.65l-86.85-43.86l66.61-148.68C3305.82,327.17,3305.89,327.24,3305.97,327.26z M2116.48,272.63
			c0.41,0.43,0.9,0.77,1.49,1l-38.79,154.35c-0.8-0.11-1.56,0.03-2.25,0.36l-52.39-87.65L2116.48,272.63z M2123.44,274.38l0.2-0.7
			l52.83,40.21l29.69,55.61l-6.39,3.11L2123.44,274.38z M2206.59,370.31l18.89,35.37l-25.13-32.34L2206.59,370.31z M2232.58,411.28
			c0.18-0.95,0.01-1.88-0.43-2.68l35.32-24.39l72.14,57.16c-0.13,0.21-0.22,0.47-0.32,0.7L2232.58,411.28z M2346.94,443.59
			l25.83,19.63l-26.36-17.69c0.2-0.34,0.41-0.69,0.5-1.1C2346.98,444.15,2346.94,443.87,2346.94,443.59z M2383.93,466.46
			c-0.47-0.11-0.93-0.09-1.39-0.04l-6.15-26.98l25.27-3.41l-17.12,30.7C2384.33,466.66,2384.16,466.51,2383.93,466.46z
			 M2376.2,438.6l-5.07-22.25l45.78-45.22l15.32,10.11l-30.03,53.85L2376.2,438.6z M2432.99,381.75l59.55,39.32
			c-0.14,0.29-0.32,0.56-0.39,0.88c-0.08,0.34-0.04,0.67-0.03,1.01l-88.8,11.99L2432.99,381.75z M2498.07,419.4l26.17-59.93
			l78.8,48.92l7.51,17.84l-110.51-3.65C2499.96,421.24,2499.23,420.07,2498.07,419.4z M2604.62,409.36l26.46,16.43
			c-0.11,0.24-0.27,0.46-0.33,0.73c-0.03,0.13,0.01,0.24-0.01,0.38l-19-0.63L2604.62,409.36z M2630.72,427.7
			c0.12,1.73,1.28,3.25,3.06,3.66c0.21,0.05,0.41,0,0.62,0.02l-0.37,45.78c-0.28,0.01-0.55,0.04-0.82,0.12l-21.13-50.2
			L2630.72,427.7z M2638.02,479.88l47.58-21.95l23.02,13.51l-70.49,8.74C2638.11,480.07,2638.05,479.98,2638.02,479.88z
			 M2686.76,457.39l31.24-14.41l75.01,13.55l1.14,4.3l-83.83,10.39L2686.76,457.39z M2794.4,461.75l17.81,66.96
			c-0.7,0.26-1.33,0.65-1.79,1.25l-98.75-57.96L2794.4,461.75z M3062.89,568.41l77.1-29.61l6.58,139.29
			c-0.52,0.1-1.01,0.29-1.45,0.57l-83.34-106.42c0.54-0.53,1-1.15,1.18-1.94C3063.1,569.65,3063.04,569.01,3062.89,568.41z
			 M3148.17,678.13c-0.2-0.05-0.39,0-0.59-0.02l-6.61-139.7l80.74-31.01c0.33,0.64,0.84,1.17,1.47,1.55l-74.77,169.28
			C3148.33,678.21,3148.27,678.15,3148.17,678.13z M3332.32,519.35l119.03-129.17c0.43,0.3,0.92,0.54,1.45,0.66
			c0.46,0.1,0.91,0.08,1.35,0.04l18.18,92.34c-1.36,0.39-2.49,1.44-2.83,2.91c-0.12,0.49-0.11,0.98-0.04,1.45l-136.44,33.01
			C3332.87,520.13,3332.63,519.72,3332.32,519.35z M3450.69,389.48l-119.03,129.17c-0.42-0.3-0.91-0.54-1.46-0.66
			c-0.28-0.06-0.56-0.01-0.84-0.02l-21.52-190.75c1.06-0.26,1.95-0.95,2.5-1.91l139.56,60.43c-0.03,0.1-0.09,0.18-0.12,0.27
			C3449.49,387.29,3449.9,388.54,3450.69,389.48z M3304.8,326.73l-66.59,148.64l-69.64-35.17c0.06-0.16,0.16-0.27,0.2-0.44
			c0.25-1.09,0.03-2.19-0.52-3.07l135.88-110.51C3304.34,326.39,3304.55,326.58,3304.8,326.73z M3160.9,437.95
			c-0.1,0.43-0.07,0.85-0.04,1.27l-25.6,5.18l-11.39-161.58l39.53,152.34C3162.19,435.62,3161.21,436.59,3160.9,437.95z
			 M3122.07,281.49c0.23,0.05,0.44,0,0.66,0.02l11.49,163.1l-117.75,23.83c-0.42-1.31-1.44-2.4-2.87-2.73
			c-0.71-0.17-1.41-0.07-2.06,0.13l-49.89-120.26c0.99-0.54,1.77-1.44,2.04-2.61c0.15-0.66,0.08-1.32-0.08-1.93l155.85-61.57
			C3119.99,280.44,3120.89,281.22,3122.07,281.49z M2674.15,276.67l-110.9,1.08c-0.17-1.67-1.34-3.12-3.06-3.53l11.72-77.07
			c1.21,0.09,2.33-0.36,3.14-1.19l99.69,78.88c-0.24,0.38-0.46,0.78-0.57,1.25C2674.12,276.29,2674.17,276.47,2674.15,276.67z
			 M2569.34,195.95l-51.48,62.37l-118.58-55.25c0.04-0.12,0.12-0.21,0.15-0.32c0.05-0.21,0-0.42,0.02-0.63l168.76-8.25
			C2568.35,194.67,2568.78,195.37,2569.34,195.95z M2391.83,203.35l-67.05,36.29l-19.44-65.22c0.93-0.4,1.66-1.11,2.08-2.08
			l84.18,28.53c-0.01,0.02-0.02,0.04-0.03,0.06C2391.37,201.77,2391.52,202.6,2391.83,203.35z M2263.48,270.46
			c-0.01,0.08,0,0.16,0,0.23l-99.52-0.82l-13.12-16.27l18.02-9.69L2263.48,270.46z M2150.16,252.77l-13.04-16.16
			c0.38-0.38,0.67-0.83,0.87-1.35l29.39,8.24L2150.16,252.77z M2132.58,237.38l-11.9,28.78c-0.14-0.05-0.25-0.15-0.4-0.18
			c-2.17-0.51-4.34,0.85-4.84,3.02c-0.03,0.15,0.01,0.28-0.01,0.42l-19.83,0.04l36.12-32.61
			C2131.97,237.07,2132.27,237.22,2132.58,237.38z M2115.4,270.43c0.06,0.46,0.21,0.88,0.42,1.28l-73.73,46.06l52.38-47.3
			L2115.4,270.43z M2015.26,332.18l-56.53,2.49l-34.95-61.04c0.33-0.23,0.63-0.5,0.89-0.82l91.01,57.86
			c-0.15,0.29-0.33,0.57-0.41,0.9C2015.23,331.78,2015.28,331.98,2015.26,332.18z M1826.52,339.77l-21.6-0.49l109.24-64.1
			L1826.52,339.77z M1825.66,340.41l-5.15,3.8l-36.28,7.84c-0.05-0.18-0.12-0.34-0.2-0.51l19.81-11.63L1825.66,340.41z
			 M1783.6,350.76c-0.55-0.74-1.32-1.33-2.28-1.54c-1.87-0.44-3.67,0.56-4.47,2.21l-28.78-11.9c0.05-0.14,0.14-0.24,0.18-0.39
			c0.04-0.17,0-0.32,0.01-0.49l53.9,1.23L1783.6,350.76z M2037.01,320.94l-13.52,8.45l68.7-58.91h0.72L2037.01,320.94z
			 M1747.87,339.94l28.78,11.9c-0.05,0.14-0.14,0.25-0.18,0.4c-0.5,2.17,0.85,4.34,3.03,4.84c0.13,0.03,0.25-0.01,0.38,0.01
			l-1.26,14.73c-0.98-0.04-1.89,0.26-2.62,0.85l-28.84-31.69C1747.44,340.67,1747.68,340.33,1747.87,339.94z M1782.05,374.03
			l29.72-17.27l159.34,15.77l-188.66,2.67C1782.4,374.78,1782.24,374.4,1782.05,374.03z M1983.69,370.92l40.26-29.8l52.35,87.57
			c-0.34,0.24-0.66,0.52-0.91,0.85l-91.62-54.89c0.13-0.27,0.3-0.51,0.37-0.81C1984.39,372.8,1984.18,371.77,1983.69,370.92z
			 M2082.41,430.61l117.07-56.85l26.37,33.94c-0.53,0.52-0.97,1.13-1.15,1.91c-0.08,0.35-0.04,0.69-0.03,1.05l-142.14,20.27
			C2082.5,430.83,2082.44,430.72,2082.41,430.61z M2339.03,442.77c-0.4,2.12,0.91,4.2,3.03,4.69c1.6,0.37,3.18-0.27,4.11-1.49
			l33.24,22.3l0.17,0.13c-0.03,0.05-0.04,0.11-0.07,0.16l-142.14-55.13L2339.03,442.77z M2385.38,467.12l17.43-31.24l89.4-12.07
			c0.02,0.08,0.06,0.15,0.09,0.22l-105.75,44.48C2386.26,467.98,2385.88,467.48,2385.38,467.12z M2500.03,423.39l110.87,3.66
			l21.31,50.62c-0.61,0.36-1.08,0.9-1.44,1.53L2499.91,424c0.03-0.09,0.09-0.16,0.11-0.24
			C2500.05,423.63,2500.01,423.5,2500.03,423.39z M2638.22,481.11l71.74-8.9l99.93,58.65l-171.69-49.12
			C2638.23,481.53,2638.22,481.33,2638.22,481.11z M2817.42,533.57l137.61,25.55c-0.15,1.9,1.03,3.68,2.92,4.18l-21.16,132.03
			c-0.77-0.04-1.5,0.1-2.15,0.45l-118.3-160.49C2816.83,534.82,2817.22,534.25,2817.42,533.57z M2939.62,696.75l116.98-124.12
			c0.44,0.32,0.94,0.57,1.49,0.69c1.09,0.25,2.19,0.04,3.07-0.52l83.34,106.42c-0.55,0.53-1,1.15-1.18,1.94
			c-0.05,0.23,0,0.47-0.02,0.7l-202.81,16.57C2940.36,697.79,2940.04,697.23,2939.62,696.75z M3149.32,678.65l74.78-169.28
			c0.09,0.03,0.15,0.09,0.23,0.11c1.21,0.28,2.39-0.05,3.31-0.75l92.31,99.17c-0.42,0.49-0.78,1.04-0.93,1.72
			c-0.16,0.67-0.09,1.32,0.09,1.94l-168.36,68.55C3150.43,679.5,3149.93,679.02,3149.32,678.65z M3323.87,606.59
			c-0.11-0.03-0.21,0-0.31-0.01l5.77-80.69c1.82-0.02,3.48-1.2,3.9-3.05c0.12-0.49,0.1-0.98,0.04-1.45l136.44-33.01
			c0.1,0.28,0.16,0.58,0.31,0.82l-144.34,118.43C3325.18,607.16,3324.6,606.75,3323.87,606.59z M3591.06,360.54l-133.54,25.22
			c-0.4-1.34-1.44-2.46-2.9-2.79c-0.09-0.02-0.17,0-0.25-0.01l8.13-115.34c1.1-0.04,2.1-0.49,2.83-1.28l126.24,91.9
			c-0.2,0.33-0.39,0.66-0.49,1.05C3591,359.72,3591.03,360.13,3591.06,360.54z M3461.5,267.58c0.08,0.02,0.17,0,0.24,0.01
			l-8.12,115.35c-1.41,0.04-2.66,0.77-3.36,1.99L3310.7,324.5c0.03-0.1,0.1-0.17,0.12-0.26c0.16-0.65,0.09-1.3-0.07-1.9
			l148.11-56.84C3459.39,266.51,3460.3,267.31,3461.5,267.58z M3303.47,325.49l-135.89,110.51c-0.51-0.5-1.1-0.91-1.85-1.07
			c-0.5-0.12-1-0.11-1.47-0.05l-39.86-153.61c1.04-0.4,1.86-1.19,2.28-2.28l176.26,43.88
			C3302.83,323.8,3302.99,324.72,3303.47,325.49z M3119.12,278.58l-155.85,61.57c-0.53-1-1.44-1.78-2.61-2.05
			c-0.06-0.01-0.11,0.01-0.17,0l11.78-173.84c1-0.06,1.9-0.47,2.59-1.16l144.69,112.42c-0.2,0.35-0.41,0.7-0.51,1.12
			C3118.88,277.31,3118.95,277.96,3119.12,278.58z M2971.15,164.23c0.06,0.02,0.11,0,0.17,0.01l-11.78,173.84
			c-0.33,0.02-0.64,0.08-0.95,0.17l-65.88-150.42c0.93-0.54,1.65-1.43,1.91-2.56c0.14-0.6,0.11-1.18-0.02-1.75l73.75-21.81
			C2968.81,162.92,2969.79,163.91,2971.15,164.23z M2887.61,186.87L2785.3,291.43c-0.46-0.36-0.97-0.64-1.57-0.78
			c-0.43-0.1-0.85-0.07-1.27-0.04l-38.26-176.2c0.83-0.3,1.56-0.82,2.05-1.57l140.7,70.16c-0.05,0.16-0.16,0.28-0.2,0.45
			C2886.46,184.71,2886.85,185.93,2887.61,186.87z M2739.51,112.85c0.37,0.57,0.9,0.99,1.51,1.31l-61.91,158.95
			c-0.03-0.01-0.06-0.04-0.1-0.04c-1.43-0.33-2.8,0.2-3.76,1.17l-99.69-78.88c0.24-0.38,0.46-0.78,0.57-1.25
			c0.18-0.76,0.06-1.48-0.18-2.18L2739.51,112.85z M2568.24,192.93l-168.76,8.24c-0.24-1.41-1.25-2.57-2.64-3.07l24.22-91.74
			c1.51,0.26,2.97-0.33,3.87-1.48l143.65,86.69c-0.11,0.24-0.27,0.46-0.33,0.72C2568.21,192.51,2568.26,192.71,2568.24,192.93z
			 M2418.52,104.76c0.46,0.64,1.12,1.11,1.9,1.4l-24.22,91.74c-1.85-0.32-3.59,0.68-4.32,2.36l-84.17-28.52
			c0-0.03,0.02-0.05,0.03-0.07c0.21-0.9,0.04-1.77-0.32-2.55L2418.52,104.76z M2168.41,242.96l-30.16-8.46
			c0.09-0.56,0.07-1.1-0.06-1.63l158.92-59.11L2168.41,242.96z M2094.02,269.47h-0.65l12.96-11.11L2094.02,269.47z M2021.94,329.6
			c-0.51-0.48-1.09-0.88-1.81-1.04c-1.59-0.36-3.16,0.27-4.09,1.48l-91.02-57.86c0.15-0.29,0.33-0.57,0.41-0.91
			c0.03-0.14-0.01-0.26,0.01-0.41l165.43-0.37L2021.94,329.6z M1803.22,339.25l-54.95-1.27c-0.02-0.24-0.03-0.48-0.09-0.71
			l168.18-64.41L1803.22,339.25z"/>
	</g>
</g>
</svg>
